<svg xmlns="http://www.w3.org/2000/svg" xmlns:xlink="http://www.w3.org/1999/xlink" id="processonSvg1000" viewBox="82.0 150.0 2057.0 943.8333333333333" width="2057.0" height="943.8333333333333"><defs id="ProcessOnDefs1001"><marker id="ProcessOnMarker1092" markerUnits="userSpaceOnUse" orient="auto" markerWidth="16.23606797749979" markerHeight="10.550836550532098" viewBox="-1.0 -1.3763819204711736 16.23606797749979 10.550836550532098" refX="15.23606797749979" refY="3.8990363547948754"><path id="ProcessOnPath1093" d="M12.0 3.8990363547948754L0.0 7.798072709589751V0.0Z" stroke="#323232" stroke-width="2.0" fill="#323232" transform="matrix(-1.0,1.2246467991473532E-16,-1.2246467991473532E-16,-1.0,14.23606797749979,7.798072709589751)"/></marker><marker id="ProcessOnMarker1100" markerUnits="userSpaceOnUse" orient="auto" markerWidth="16.23606797749979" markerHeight="10.550836550532098" viewBox="-1.0 -1.3763819204711736 16.23606797749979 10.550836550532098" refX="15.23606797749979" refY="3.8990363547948754"><path id="ProcessOnPath1101" d="M12.0 3.8990363547948754L0.0 7.798072709589751V0.0Z" stroke="#323232" stroke-width="2.0" fill="#323232" transform="matrix(-1.0,1.2246467991473532E-16,-1.2246467991473532E-16,-1.0,14.23606797749979,7.798072709589751)"/></marker><marker id="ProcessOnMarker1104" markerUnits="userSpaceOnUse" orient="auto" markerWidth="16.23606797749979" markerHeight="10.550836550532098" viewBox="-1.0 -1.3763819204711736 16.23606797749979 10.550836550532098" refX="15.23606797749979" refY="3.8990363547948754"><path id="ProcessOnPath1105" d="M12.0 3.8990363547948754L0.0 7.798072709589751V0.0Z" stroke="#323232" stroke-width="2.0" fill="#323232" transform="matrix(-1.0,1.2246467991473532E-16,-1.2246467991473532E-16,-1.0,14.23606797749979,7.798072709589751)"/></marker><marker id="ProcessOnMarker1116" markerUnits="userSpaceOnUse" orient="auto" markerWidth="16.23606797749979" markerHeight="10.550836550532098" viewBox="-1.0 -1.3763819204711736 16.23606797749979 10.550836550532098" refX="-1.0" refY="3.8990363547948754"><path id="ProcessOnPath1117" d="M12.0 3.8990363547948754L0.0 7.798072709589751V0.0Z" stroke="#323232" stroke-width="2.0" fill="#323232" transform="matrix(1.0,0.0,0.0,1.0,0.0,0.0)"/></marker><marker id="ProcessOnMarker1120" markerUnits="userSpaceOnUse" orient="auto" markerWidth="16.23606797749979" markerHeight="10.550836550532098" viewBox="-1.0 -1.3763819204711736 16.23606797749979 10.550836550532098" refX="-1.0" refY="3.8990363547948754"><path id="ProcessOnPath1121" d="M12.0 3.8990363547948754L0.0 7.798072709589751V0.0Z" stroke="#323232" stroke-width="2.0" fill="#323232" transform="matrix(1.0,0.0,0.0,1.0,0.0,0.0)"/></marker><marker id="ProcessOnMarker1124" markerUnits="userSpaceOnUse" orient="auto" markerWidth="16.23606797749979" markerHeight="10.550836550532098" viewBox="-1.0 -1.3763819204711736 16.23606797749979 10.550836550532098" refX="-1.0" refY="3.8990363547948754"><path id="ProcessOnPath1125" d="M12.0 3.8990363547948754L0.0 7.798072709589751V0.0Z" stroke="#323232" stroke-width="2.0" fill="#323232" transform="matrix(1.0,0.0,0.0,1.0,0.0,0.0)"/></marker><marker id="ProcessOnMarker1128" markerUnits="userSpaceOnUse" orient="auto" markerWidth="16.23606797749979" markerHeight="10.550836550532098" viewBox="-1.0 -1.3763819204711736 16.23606797749979 10.550836550532098" refX="15.23606797749979" refY="3.8990363547948754"><path id="ProcessOnPath1129" d="M12.0 3.8990363547948754L0.0 7.798072709589751V0.0Z" stroke="#323232" stroke-width="2.0" fill="#fff" transform="matrix(-1.0,1.2246467991473532E-16,-1.2246467991473532E-16,-1.0,14.23606797749979,7.798072709589751)"/></marker><marker id="ProcessOnMarker1130" markerUnits="userSpaceOnUse" orient="auto" markerWidth="16.23606797749979" markerHeight="10.550836550532098" viewBox="-1.0 -1.3763819204711736 16.23606797749979 10.550836550532098" refX="-1.0" refY="3.8990363547948754"><path id="ProcessOnPath1131" d="M12.0 3.8990363547948754L0.0 7.798072709589751V0.0Z" stroke="#323232" stroke-width="2.0" fill="#fff" transform="matrix(1.0,0.0,0.0,1.0,0.0,0.0)"/></marker><marker id="ProcessOnMarker1134" markerUnits="userSpaceOnUse" orient="auto" markerWidth="16.23606797749979" markerHeight="10.550836550532098" viewBox="-1.0 -1.3763819204711736 16.23606797749979 10.550836550532098" refX="15.23606797749979" refY="3.8990363547948754"><path id="ProcessOnPath1135" d="M12.0 3.8990363547948754L0.0 7.798072709589751V0.0Z" stroke="#323232" stroke-width="2.0" fill="#fff" transform="matrix(-1.0,1.2246467991473532E-16,-1.2246467991473532E-16,-1.0,14.23606797749979,7.798072709589751)"/></marker><marker id="ProcessOnMarker1136" markerUnits="userSpaceOnUse" orient="auto" markerWidth="16.23606797749979" markerHeight="10.550836550532098" viewBox="-1.0 -1.3763819204711736 16.23606797749979 10.550836550532098" refX="-1.0" refY="3.8990363547948754"><path id="ProcessOnPath1137" d="M12.0 3.8990363547948754L0.0 7.798072709589751V0.0Z" stroke="#323232" stroke-width="2.0" fill="#fff" transform="matrix(1.0,0.0,0.0,1.0,0.0,0.0)"/></marker><marker id="ProcessOnMarker1140" markerUnits="userSpaceOnUse" orient="auto" markerWidth="16.23606797749979" markerHeight="10.550836550532098" viewBox="-1.0 -1.3763819204711736 16.23606797749979 10.550836550532098" refX="-1.0" refY="3.8990363547948754"><path id="ProcessOnPath1141" d="M12.0 3.8990363547948754L0.0 7.798072709589751V0.0Z" stroke="#a1a1a1" stroke-width="2.0" fill="#a1a1a1" transform="matrix(1.0,0.0,0.0,1.0,0.0,0.0)"/></marker><marker id="ProcessOnMarker1144" markerUnits="userSpaceOnUse" orient="auto" markerWidth="16.23606797749979" markerHeight="10.550836550532098" viewBox="-1.0 -1.3763819204711736 16.23606797749979 10.550836550532098" refX="-1.0" refY="3.8990363547948754"><path id="ProcessOnPath1145" d="M12.0 3.8990363547948754L0.0 7.798072709589751V0.0Z" stroke="#a1a1a1" stroke-width="2.0" fill="#a1a1a1" transform="matrix(1.0,0.0,0.0,1.0,0.0,0.0)"/></marker><marker id="ProcessOnMarker1148" markerUnits="userSpaceOnUse" orient="auto" markerWidth="16.23606797749979" markerHeight="10.550836550532098" viewBox="-1.0 -1.3763819204711736 16.23606797749979 10.550836550532098" refX="-1.0" refY="3.8990363547948754"><path id="ProcessOnPath1149" d="M12.0 3.8990363547948754L0.0 7.798072709589751V0.0Z" stroke="#a1a1a1" stroke-width="2.0" fill="#a1a1a1" transform="matrix(1.0,0.0,0.0,1.0,0.0,0.0)"/></marker><marker id="ProcessOnMarker1152" markerUnits="userSpaceOnUse" orient="auto" markerWidth="14.289086868996552" markerHeight="19.055054660878554" viewBox="-0.5877852522924731 -0.8090169943749475 14.289086868996552 19.055054660878554" refX="12.0" refY="8.71851033606433"><path id="ProcessOnPath1153" d="M0 0L12.0 8.71851033606433L0 17.43702067212866" stroke="#323232" stroke-width="2.0" fill="none" transform="matrix(1.0,0.0,0.0,1.0,0.0,0.0)"/></marker><marker id="ProcessOnMarker1156" markerUnits="userSpaceOnUse" orient="auto" markerWidth="14.289086868996552" markerHeight="19.055054660878554" viewBox="-0.5877852522924731 -0.8090169943749475 14.289086868996552 19.055054660878554" refX="12.0" refY="8.71851033606433"><path id="ProcessOnPath1157" d="M0 0L12.0 8.71851033606433L0 17.43702067212866" stroke="#323232" stroke-width="2.0" fill="none" transform="matrix(1.0,0.0,0.0,1.0,0.0,0.0)"/></marker><marker id="ProcessOnMarker1160" markerUnits="userSpaceOnUse" orient="auto" markerWidth="14.289086868996552" markerHeight="19.055054660878554" viewBox="-0.5877852522924731 -0.8090169943749475 14.289086868996552 19.055054660878554" refX="12.0" refY="8.71851033606433"><path id="ProcessOnPath1161" d="M0 0L12.0 8.71851033606433L0 17.43702067212866" stroke="#323232" stroke-width="2.0" fill="none" transform="matrix(1.0,0.0,0.0,1.0,0.0,0.0)"/></marker><marker id="ProcessOnMarker1180" markerUnits="userSpaceOnUse" orient="auto" markerWidth="14.289086868996552" markerHeight="19.055054660878554" viewBox="-0.5877852522924731 -0.8090169943749475 14.289086868996552 19.055054660878554" refX="12.0" refY="8.71851033606433"><path id="ProcessOnPath1181" d="M0 0L12.0 8.71851033606433L0 17.43702067212866" stroke="#323232" stroke-width="2.0" fill="none" transform="matrix(1.0,0.0,0.0,1.0,0.0,0.0)"/></marker><marker id="ProcessOnMarker1184" markerUnits="userSpaceOnUse" orient="auto" markerWidth="14.289086868996552" markerHeight="19.055054660878554" viewBox="-0.5877852522924731 -0.8090169943749475 14.289086868996552 19.055054660878554" refX="12.0" refY="8.71851033606433"><path id="ProcessOnPath1185" d="M0 0L12.0 8.71851033606433L0 17.43702067212866" stroke="#323232" stroke-width="2.0" fill="none" transform="matrix(1.0,0.0,0.0,1.0,0.0,0.0)"/></marker><marker id="ProcessOnMarker1188" markerUnits="userSpaceOnUse" orient="auto" markerWidth="16.23606797749979" markerHeight="10.550836550532098" viewBox="-1.0 -1.3763819204711736 16.23606797749979 10.550836550532098" refX="-1.0" refY="3.8990363547948754"><path id="ProcessOnPath1189" d="M12.0 3.8990363547948754L0.0 7.798072709589751V0.0Z" stroke="#a1a1a1" stroke-width="2.0" fill="#a1a1a1" transform="matrix(1.0,0.0,0.0,1.0,0.0,0.0)"/></marker><marker id="ProcessOnMarker1192" markerUnits="userSpaceOnUse" orient="auto" markerWidth="16.23606797749979" markerHeight="10.550836550532098" viewBox="-1.0 -1.3763819204711736 16.23606797749979 10.550836550532098" refX="-1.0" refY="3.8990363547948754"><path id="ProcessOnPath1193" d="M12.0 3.8990363547948754L0.0 7.798072709589751V0.0Z" stroke="#a1a1a1" stroke-width="2.0" fill="#a1a1a1" transform="matrix(1.0,0.0,0.0,1.0,0.0,0.0)"/></marker><marker id="ProcessOnMarker1196" markerUnits="userSpaceOnUse" orient="auto" markerWidth="16.23606797749979" markerHeight="10.550836550532098" viewBox="-1.0 -1.3763819204711736 16.23606797749979 10.550836550532098" refX="-1.0" refY="3.8990363547948754"><path id="ProcessOnPath1197" d="M12.0 3.8990363547948754L0.0 7.798072709589751V0.0Z" stroke="#a1a1a1" stroke-width="2.0" fill="#a1a1a1" transform="matrix(1.0,0.0,0.0,1.0,0.0,0.0)"/></marker><marker id="ProcessOnMarker1205" markerUnits="userSpaceOnUse" orient="auto" markerWidth="14.289086868996552" markerHeight="19.055054660878554" viewBox="-0.5877852522924731 -0.8090169943749475 14.289086868996552 19.055054660878554" refX="12.0" refY="8.71851033606433"><path id="ProcessOnPath1206" d="M0 0L12.0 8.71851033606433L0 17.43702067212866" stroke="#323232" stroke-width="2.0" fill="none" transform="matrix(1.0,0.0,0.0,1.0,0.0,0.0)"/></marker><marker id="ProcessOnMarker1209" markerUnits="userSpaceOnUse" orient="auto" markerWidth="14.289086868996552" markerHeight="19.055054660878554" viewBox="-0.5877852522924731 -0.8090169943749475 14.289086868996552 19.055054660878554" refX="12.0" refY="8.71851033606433"><path id="ProcessOnPath1210" d="M0 0L12.0 8.71851033606433L0 17.43702067212866" stroke="#323232" stroke-width="2.0" fill="none" transform="matrix(1.0,0.0,0.0,1.0,0.0,0.0)"/></marker><marker id="ProcessOnMarker1226" markerUnits="userSpaceOnUse" orient="auto" markerWidth="14.289086868996552" markerHeight="19.055054660878554" viewBox="-0.5877852522924731 -0.8090169943749475 14.289086868996552 19.055054660878554" refX="12.0" refY="8.71851033606433"><path id="ProcessOnPath1227" d="M0 0L12.0 8.71851033606433L0 17.43702067212866" stroke="#323232" stroke-width="2.0" fill="none" transform="matrix(1.0,0.0,0.0,1.0,0.0,0.0)"/></marker><marker id="ProcessOnMarker1235" markerUnits="userSpaceOnUse" orient="auto" markerWidth="14.289086868996552" markerHeight="19.055054660878554" viewBox="-0.5877852522924731 -0.8090169943749475 14.289086868996552 19.055054660878554" refX="12.0" refY="8.71851033606433"><path id="ProcessOnPath1236" d="M0 0L12.0 8.71851033606433L0 17.43702067212866" stroke="#323232" stroke-width="2.0" fill="none" transform="matrix(1.0,0.0,0.0,1.0,0.0,0.0)"/></marker><marker id="ProcessOnMarker1263" markerUnits="userSpaceOnUse" orient="auto" markerWidth="14.289086868996552" markerHeight="19.055054660878554" viewBox="-0.5877852522924731 -0.8090169943749475 14.289086868996552 19.055054660878554" refX="12.0" refY="8.71851033606433"><path id="ProcessOnPath1264" d="M0 0L12.0 8.71851033606433L0 17.43702067212866" stroke="#a1a1a1" stroke-width="2.0" fill="none" transform="matrix(1.0,0.0,0.0,1.0,0.0,0.0)"/></marker><marker id="ProcessOnMarker1267" markerUnits="userSpaceOnUse" orient="auto" markerWidth="14.289086868996552" markerHeight="19.055054660878554" viewBox="-0.5877852522924731 -0.8090169943749475 14.289086868996552 19.055054660878554" refX="12.0" refY="8.71851033606433"><path id="ProcessOnPath1268" d="M0 0L12.0 8.71851033606433L0 17.43702067212866" stroke="#a1a1a1" stroke-width="2.0" fill="none" transform="matrix(1.0,0.0,0.0,1.0,0.0,0.0)"/></marker><marker id="ProcessOnMarker1271" markerUnits="userSpaceOnUse" orient="auto" markerWidth="14.289086868996552" markerHeight="19.055054660878554" viewBox="-0.5877852522924731 -0.8090169943749475 14.289086868996552 19.055054660878554" refX="12.0" refY="8.71851033606433"><path id="ProcessOnPath1272" d="M0 0L12.0 8.71851033606433L0 17.43702067212866" stroke="#a1a1a1" stroke-width="2.0" fill="none" transform="matrix(1.0,0.0,0.0,1.0,0.0,0.0)"/></marker><marker id="ProcessOnMarker1275" markerUnits="userSpaceOnUse" orient="auto" markerWidth="14.289086868996552" markerHeight="19.055054660878554" viewBox="-0.5877852522924731 -0.8090169943749475 14.289086868996552 19.055054660878554" refX="12.0" refY="8.71851033606433"><path id="ProcessOnPath1276" d="M0 0L12.0 8.71851033606433L0 17.43702067212866" stroke="#a1a1a1" stroke-width="2.0" fill="none" transform="matrix(1.0,0.0,0.0,1.0,0.0,0.0)"/></marker><marker id="ProcessOnMarker1279" markerUnits="userSpaceOnUse" orient="auto" markerWidth="14.289086868996552" markerHeight="19.055054660878554" viewBox="-0.5877852522924731 -0.8090169943749475 14.289086868996552 19.055054660878554" refX="12.0" refY="8.71851033606433"><path id="ProcessOnPath1280" d="M0 0L12.0 8.71851033606433L0 17.43702067212866" stroke="#a1a1a1" stroke-width="2.0" fill="none" transform="matrix(1.0,0.0,0.0,1.0,0.0,0.0)"/></marker><marker id="ProcessOnMarker1283" markerUnits="userSpaceOnUse" orient="auto" markerWidth="14.289086868996552" markerHeight="19.055054660878554" viewBox="-0.5877852522924731 -0.8090169943749475 14.289086868996552 19.055054660878554" refX="12.0" refY="8.71851033606433"><path id="ProcessOnPath1284" d="M0 0L12.0 8.71851033606433L0 17.43702067212866" stroke="#a1a1a1" stroke-width="2.0" fill="none" transform="matrix(1.0,0.0,0.0,1.0,0.0,0.0)"/></marker><marker id="ProcessOnMarker1287" markerUnits="userSpaceOnUse" orient="auto" markerWidth="14.289086868996552" markerHeight="19.055054660878554" viewBox="-0.5877852522924731 -0.8090169943749475 14.289086868996552 19.055054660878554" refX="12.0" refY="8.71851033606433"><path id="ProcessOnPath1288" d="M0 0L12.0 8.71851033606433L0 17.43702067212866" stroke="#323232" stroke-width="2.0" fill="none" transform="matrix(1.0,0.0,0.0,1.0,0.0,0.0)"/></marker><marker id="ProcessOnMarker1291" markerUnits="userSpaceOnUse" orient="auto" markerWidth="14.289086868996552" markerHeight="19.055054660878554" viewBox="-0.5877852522924731 -0.8090169943749475 14.289086868996552 19.055054660878554" refX="12.0" refY="8.71851033606433"><path id="ProcessOnPath1292" d="M0 0L12.0 8.71851033606433L0 17.43702067212866" stroke="#323232" stroke-width="2.0" fill="none" transform="matrix(1.0,0.0,0.0,1.0,0.0,0.0)"/></marker><marker id="ProcessOnMarker1295" markerUnits="userSpaceOnUse" orient="auto" markerWidth="14.289086868996552" markerHeight="19.055054660878554" viewBox="-0.5877852522924731 -0.8090169943749475 14.289086868996552 19.055054660878554" refX="12.0" refY="8.71851033606433"><path id="ProcessOnPath1296" d="M0 0L12.0 8.71851033606433L0 17.43702067212866" stroke="#323232" stroke-width="2.0" fill="none" transform="matrix(1.0,0.0,0.0,1.0,0.0,0.0)"/></marker><marker id="ProcessOnMarker1318" markerUnits="userSpaceOnUse" orient="auto" markerWidth="16.23606797749979" markerHeight="10.550836550532098" viewBox="-1.0 -1.3763819204711736 16.23606797749979 10.550836550532098" refX="-1.0" refY="3.8990363547948754"><path id="ProcessOnPath1319" d="M12.0 3.8990363547948754L0.0 7.798072709589751V0.0Z" stroke="#323232" stroke-width="2.0" fill="#323232" transform="matrix(1.0,0.0,0.0,1.0,0.0,0.0)"/></marker><marker id="ProcessOnMarker1327" markerUnits="userSpaceOnUse" orient="auto" markerWidth="16.23606797749979" markerHeight="10.550836550532098" viewBox="-1.0 -1.3763819204711736 16.23606797749979 10.550836550532098" refX="-1.0" refY="3.8990363547948754"><path id="ProcessOnPath1328" d="M12.0 3.8990363547948754L0.0 7.798072709589751V0.0Z" stroke="#323232" stroke-width="2.0" fill="#323232" transform="matrix(1.0,0.0,0.0,1.0,0.0,0.0)"/></marker><marker id="ProcessOnMarker1336" markerUnits="userSpaceOnUse" orient="auto" markerWidth="16.23606797749979" markerHeight="10.550836550532098" viewBox="-1.0 -1.3763819204711736 16.23606797749979 10.550836550532098" refX="-1.0" refY="3.8990363547948754"><path id="ProcessOnPath1337" d="M12.0 3.8990363547948754L0.0 7.798072709589751V0.0Z" stroke="#323232" stroke-width="2.0" fill="#323232" transform="matrix(1.0,0.0,0.0,1.0,0.0,0.0)"/></marker><marker id="ProcessOnMarker1340" markerUnits="userSpaceOnUse" orient="auto" markerWidth="16.23606797749979" markerHeight="10.550836550532098" viewBox="-1.0 -1.3763819204711736 16.23606797749979 10.550836550532098" refX="-1.0" refY="3.8990363547948754"><path id="ProcessOnPath1341" d="M12.0 3.8990363547948754L0.0 7.798072709589751V0.0Z" stroke="#323232" stroke-width="2.0" fill="#323232" transform="matrix(1.0,0.0,0.0,1.0,0.0,0.0)"/></marker><marker id="ProcessOnMarker1344" markerUnits="userSpaceOnUse" orient="auto" markerWidth="16.23606797749979" markerHeight="10.550836550532098" viewBox="-1.0 -1.3763819204711736 16.23606797749979 10.550836550532098" refX="-1.0" refY="3.8990363547948754"><path id="ProcessOnPath1345" d="M12.0 3.8990363547948754L0.0 7.798072709589751V0.0Z" stroke="#323232" stroke-width="2.0" fill="#323232" transform="matrix(1.0,0.0,0.0,1.0,0.0,0.0)"/></marker><marker id="ProcessOnMarker1370" markerUnits="userSpaceOnUse" orient="auto" markerWidth="16.23606797749979" markerHeight="10.550836550532098" viewBox="-1.0 -1.3763819204711736 16.23606797749979 10.550836550532098" refX="-1.0" refY="3.8990363547948754"><path id="ProcessOnPath1371" d="M12.0 3.8990363547948754L0.0 7.798072709589751V0.0Z" stroke="#323232" stroke-width="2.0" fill="#323232" transform="matrix(1.0,0.0,0.0,1.0,0.0,0.0)"/></marker><marker id="ProcessOnMarker1374" markerUnits="userSpaceOnUse" orient="auto" markerWidth="16.23606797749979" markerHeight="10.550836550532098" viewBox="-1.0 -1.3763819204711736 16.23606797749979 10.550836550532098" refX="-1.0" refY="3.8990363547948754"><path id="ProcessOnPath1375" d="M12.0 3.8990363547948754L0.0 7.798072709589751V0.0Z" stroke="#323232" stroke-width="2.0" fill="#323232" transform="matrix(1.0,0.0,0.0,1.0,0.0,0.0)"/></marker></defs><g id="ProcessOnG1002"><path id="ProcessOnPath1003" d="M82.0 150.0H2139.0V1093.8333333333333H82.0V150.0Z" fill="none"/><g id="ProcessOnG1004"><g id="ProcessOnG1005" transform="matrix(1.0,0.0,0.0,1.0,1236.0833333333328,869.8333333333333)" opacity="1.0"><path id="ProcessOnPath1006" d="M0.0 4.0Q0.0 0.0 4.0 0.0L458.5 0.0Q462.5 0.0 462.5 4.0L462.5 200.0Q462.5 204.0 458.5 204.0L4.0 204.0Q0.0 204.0 0.0 200.0Z" stroke="#323232" stroke-width="2.0" stroke-dasharray="10.0 4.0" opacity="1.0" fill="#ffffff"/></g><g id="ProcessOnG1007" transform="matrix(1.0,0.0,0.0,1.0,1017.0,172.5)" opacity="1.0"><path id="ProcessOnPath1008" d="M0.0 4.0Q0.0 0.0 4.0 0.0L867.0 0.0Q871.0 0.0 871.0 4.0L871.0 652.0Q871.0 656.0 867.0 656.0L4.0 656.0Q0.0 656.0 0.0 652.0Z" stroke="#323232" stroke-width="2.0" stroke-dasharray="10.0 4.0" opacity="1.0" fill="#ffffff"/></g><g id="ProcessOnG1009" transform="matrix(1.0,0.0,0.0,1.0,1067.0,624.0)" opacity="1.0"><path id="ProcessOnPath1010" d="M0.0 4.0Q0.0 0.0 4.0 0.0L756.0 0.0Q760.0 0.0 760.0 4.0L760.0 154.0Q760.0 158.0 756.0 158.0L4.0 158.0Q0.0 158.0 0.0 154.0Z" stroke="#323232" stroke-width="2.0" stroke-dasharray="10.0 4.0" opacity="1.0" fill="#ffffff"/></g><g id="ProcessOnG1011" transform="matrix(1.0,0.0,0.0,1.0,1067.0,424.0)" opacity="1.0"><path id="ProcessOnPath1012" d="M0.0 4.0Q0.0 0.0 4.0 0.0L756.0 0.0Q760.0 0.0 760.0 4.0L760.0 154.0Q760.0 158.0 756.0 158.0L4.0 158.0Q0.0 158.0 0.0 154.0Z" stroke="#323232" stroke-width="2.0" stroke-dasharray="10.0 4.0" opacity="1.0" fill="#ffffff"/></g><g id="ProcessOnG1013" transform="matrix(1.0,0.0,0.0,1.0,1067.0,231.0)" opacity="1.0"><path id="ProcessOnPath1014" d="M0.0 4.0Q0.0 0.0 4.0 0.0L756.0 0.0Q760.0 0.0 760.0 4.0L760.0 154.0Q760.0 158.0 756.0 158.0L4.0 158.0Q0.0 158.0 0.0 154.0Z" stroke="#323232" stroke-width="2.0" stroke-dasharray="10.0 4.0" opacity="1.0" fill="#ffffff"/></g><g id="ProcessOnG1015" transform="matrix(1.0,0.0,0.0,1.0,616.0,237.5)" opacity="1.0"><path id="ProcessOnPath1016" d="M0.0 4.0Q0.0 0.0 4.0 0.0L282.0 0.0Q286.0 0.0 286.0 4.0L286.0 141.0Q286.0 145.0 282.0 145.0L4.0 145.0Q0.0 145.0 0.0 141.0Z" stroke="#323232" stroke-width="2.0" stroke-dasharray="10.0 4.0" opacity="1.0" fill="#ffffff"/></g><g id="ProcessOnG1017" transform="matrix(1.0,0.0,0.0,1.0,1139.5,272.5)" opacity="1.0"><g id="ProcessOnG1019" transform="matrix(1.0,0.0,0.0,1.0,0.0,0.0)"> <g id="Layer_1"> <polygon fill="#FFFFFF" points="37.5,73.789 69.499,55.619 69.499,19.28 37.5,37.45 "/> <polygon fill="#FFFFFF" points="5.502,55.519 37.5,73.688 37.5,37.45 5.502,19.28 "/> <polygon fill="#FFFFFF" points="69.297,19.28 37.5,1.212 5.703,19.28 37.5,37.349 "/> <polygon fill="#FFFFFF" points="37.5,36.238 67.479,19.28 67.378,19.28 "/> <polygon fill="#FFFFFF" points="7.621,19.28 7.521,19.28 37.5,36.238 37.5,36.238 "/> <polygon fill="#FFFFFF" points="37.5,36.238 37.5,36.238 37.5,36.238 "/> <path fill="#444444" d="M69.499,18.069L37.5,0L5.502,18.069l-1.01,0.605v1.211v36.339l31.999,18.169L37.5,75l1.01-0.606 l31.998-18.169V19.886v-1.211L69.499,18.069z M68.489,55.014L38.51,71.972V37.954l29.979-16.958V55.014z M36.491,71.972 L6.511,55.014V20.997l29.98,16.958V71.972z M7.621,19.28L37.5,2.322L67.378,19.28l0,0L37.5,36.238l0,0l0,0L7.621,19.28L7.621,19.28 z"/> <polygon fill="#CFCFCF" points="37.602,57.033 54.862,47.241 54.862,27.759 37.602,37.551 "/> <polygon fill="#CFCFCF" points="20.138,47.241 37.399,57.033 37.399,37.551 20.138,27.759 "/> <polygon fill="#CFCFCF" points="54.66,27.558 37.5,17.766 20.34,27.558 37.5,37.248 "/> <polygon fill="#96BF3D" points="37.5,36.238 52.944,27.558 52.944,27.558 "/> <polygon fill="#96BF3D" points="22.057,27.558 22.057,27.558 37.5,36.238 37.5,36.238 "/> <polygon fill="#96BF3D" points="37.5,36.238 37.5,36.238 37.5,36.238 "/> <path fill="#FFFFFF" d="M54.963,26.346L37.5,16.454l-17.463,9.892l-1.009,0.605v1.211v19.785l17.463,9.892l1.009,0.605l1.01-0.605 l17.462-9.892V28.063v-1.211L54.963,26.346z M53.953,46.736L38.51,55.519V38.055l15.443-8.781V46.736z M36.491,55.519 l-15.444-8.782V29.273l15.444,8.781V55.519z M22.057,27.558L37.5,18.775l15.444,8.681l0,0L37.5,36.238l0,0l0,0L22.057,27.558 L22.057,27.558z"/> </g>  </g><g id="ProcessOnG1020" transform="matrix(1.0,0.0,0.0,1.0,-20.0,80.0)"><text id="ProcessOnText1021" fill="#000000" font-size="16" x="56.5" y="16.4" font-family="微软雅黑" font-weight="bold" font-style="normal" text-decoration="none" family="微软雅黑" text-anchor="middle" size="16">LogStash_1</text></g></g><g id="ProcessOnG1022" transform="matrix(1.0,0.0,0.0,1.0,1136.5,465.5)" opacity="1.0"><g id="ProcessOnG1024" transform="matrix(1.0,0.0,0.0,1.0,0.0,0.0)"> <g id="Layer_1"> <polygon fill="#FFFFFF" points="37.5,73.789 69.499,55.619 69.499,19.28 37.5,37.45 "/> <polygon fill="#FFFFFF" points="5.502,55.519 37.5,73.688 37.5,37.45 5.502,19.28 "/> <polygon fill="#FFFFFF" points="69.297,19.28 37.5,1.212 5.703,19.28 37.5,37.349 "/> <polygon fill="#FFFFFF" points="37.5,36.238 67.479,19.28 67.378,19.28 "/> <polygon fill="#FFFFFF" points="7.621,19.28 7.521,19.28 37.5,36.238 37.5,36.238 "/> <polygon fill="#FFFFFF" points="37.5,36.238 37.5,36.238 37.5,36.238 "/> <path fill="#444444" d="M69.499,18.069L37.5,0L5.502,18.069l-1.01,0.605v1.211v36.339l31.999,18.169L37.5,75l1.01-0.606 l31.998-18.169V19.886v-1.211L69.499,18.069z M68.489,55.014L38.51,71.972V37.954l29.979-16.958V55.014z M36.491,71.972 L6.511,55.014V20.997l29.98,16.958V71.972z M7.621,19.28L37.5,2.322L67.378,19.28l0,0L37.5,36.238l0,0l0,0L7.621,19.28L7.621,19.28 z"/> <polygon fill="#CFCFCF" points="37.602,57.033 54.862,47.241 54.862,27.759 37.602,37.551 "/> <polygon fill="#CFCFCF" points="20.138,47.241 37.399,57.033 37.399,37.551 20.138,27.759 "/> <polygon fill="#CFCFCF" points="54.66,27.558 37.5,17.766 20.34,27.558 37.5,37.248 "/> <polygon fill="#96BF3D" points="37.5,36.238 52.944,27.558 52.944,27.558 "/> <polygon fill="#96BF3D" points="22.057,27.558 22.057,27.558 37.5,36.238 37.5,36.238 "/> <polygon fill="#96BF3D" points="37.5,36.238 37.5,36.238 37.5,36.238 "/> <path fill="#FFFFFF" d="M54.963,26.346L37.5,16.454l-17.463,9.892l-1.009,0.605v1.211v19.785l17.463,9.892l1.009,0.605l1.01-0.605 l17.462-9.892V28.063v-1.211L54.963,26.346z M53.953,46.736L38.51,55.519V38.055l15.443-8.781V46.736z M36.491,55.519 l-15.444-8.782V29.273l15.444,8.781V55.519z M22.057,27.558L37.5,18.775l15.444,8.681l0,0L37.5,36.238l0,0l0,0L22.057,27.558 L22.057,27.558z"/> </g>  </g><g id="ProcessOnG1025" transform="matrix(1.0,0.0,0.0,1.0,-20.0,80.0)"><text id="ProcessOnText1026" fill="#000000" font-size="16" x="56.5" y="16.4" font-family="微软雅黑" font-weight="bold" font-style="normal" text-decoration="none" family="微软雅黑" text-anchor="middle" size="16">LogStash_2</text></g></g><g id="ProcessOnG1027" transform="matrix(1.0,0.0,0.0,1.0,1136.5,665.5)" opacity="1.0"><g id="ProcessOnG1029" transform="matrix(1.0,0.0,0.0,1.0,0.0,0.0)"> <g id="Layer_1"> <polygon fill="#FFFFFF" points="37.5,73.789 69.499,55.619 69.499,19.28 37.5,37.45 "/> <polygon fill="#FFFFFF" points="5.502,55.519 37.5,73.688 37.5,37.45 5.502,19.28 "/> <polygon fill="#FFFFFF" points="69.297,19.28 37.5,1.212 5.703,19.28 37.5,37.349 "/> <polygon fill="#FFFFFF" points="37.5,36.238 67.479,19.28 67.378,19.28 "/> <polygon fill="#FFFFFF" points="7.621,19.28 7.521,19.28 37.5,36.238 37.5,36.238 "/> <polygon fill="#FFFFFF" points="37.5,36.238 37.5,36.238 37.5,36.238 "/> <path fill="#444444" d="M69.499,18.069L37.5,0L5.502,18.069l-1.01,0.605v1.211v36.339l31.999,18.169L37.5,75l1.01-0.606 l31.998-18.169V19.886v-1.211L69.499,18.069z M68.489,55.014L38.51,71.972V37.954l29.979-16.958V55.014z M36.491,71.972 L6.511,55.014V20.997l29.98,16.958V71.972z M7.621,19.28L37.5,2.322L67.378,19.28l0,0L37.5,36.238l0,0l0,0L7.621,19.28L7.621,19.28 z"/> <polygon fill="#CFCFCF" points="37.602,57.033 54.862,47.241 54.862,27.759 37.602,37.551 "/> <polygon fill="#CFCFCF" points="20.138,47.241 37.399,57.033 37.399,37.551 20.138,27.759 "/> <polygon fill="#CFCFCF" points="54.66,27.558 37.5,17.766 20.34,27.558 37.5,37.248 "/> <polygon fill="#96BF3D" points="37.5,36.238 52.944,27.558 52.944,27.558 "/> <polygon fill="#96BF3D" points="22.057,27.558 22.057,27.558 37.5,36.238 37.5,36.238 "/> <polygon fill="#96BF3D" points="37.5,36.238 37.5,36.238 37.5,36.238 "/> <path fill="#FFFFFF" d="M54.963,26.346L37.5,16.454l-17.463,9.892l-1.009,0.605v1.211v19.785l17.463,9.892l1.009,0.605l1.01-0.605 l17.462-9.892V28.063v-1.211L54.963,26.346z M53.953,46.736L38.51,55.519V38.055l15.443-8.781V46.736z M36.491,55.519 l-15.444-8.782V29.273l15.444,8.781V55.519z M22.057,27.558L37.5,18.775l15.444,8.681l0,0L37.5,36.238l0,0l0,0L22.057,27.558 L22.057,27.558z"/> </g>  </g><g id="ProcessOnG1030" transform="matrix(1.0,0.0,0.0,1.0,-20.0,80.0)"><text id="ProcessOnText1031" fill="#000000" font-size="16" x="56.5" y="16.4" font-family="微软雅黑" font-weight="bold" font-style="normal" text-decoration="none" family="微软雅黑" text-anchor="middle" size="16">LogStash_3</text></g></g><g id="ProcessOnG1032" transform="matrix(1.0,0.0,0.0,1.0,1430.5,898.5)" opacity="1.0"><g id="ProcessOnG1034" transform="matrix(1.0,0.0,0.0,1.0,0.0,0.0)"> <polygon fill="#FFFFFF" points="37.5,73.788 69.499,55.618 69.499,19.279 37.5,37.449 "/> <polygon fill="#FFFFFF" points="5.502,55.518 37.5,73.688 37.5,37.449 5.502,19.279 "/> <polygon fill="#FFFFFF" points="69.297,19.279 37.5,1.211 5.703,19.279 37.5,37.349 "/> <polygon fill="#FFFFFF" points="37.5,36.238 67.479,19.279 67.379,19.279 "/> <polygon fill="#FFFFFF" points="7.621,19.279 7.521,19.279 37.5,36.238 37.5,36.238 "/> <polygon fill="#FFFFFF" points="37.5,36.238 37.5,36.238 37.5,36.238 "/> <path fill="#444444" d="M69.499,18.068L37.5,0L5.502,18.068l-1.01,0.605v1.212v36.339l31.999,18.169L37.5,75l1.01-0.606 l31.998-18.169V19.886v-1.212L69.499,18.068z M68.489,55.013L38.51,71.971V37.954l29.979-16.958V55.013z M36.491,71.971 L6.511,55.013V20.996l29.98,16.958V71.971z M7.621,19.279L37.5,2.321l29.879,16.958l0,0L37.5,36.238l0,0l0,0L7.621,19.279 L7.621,19.279z"/> <polygon fill="#4090D7" points="37.602,57.031 54.862,47.24 54.862,27.759 37.602,37.55 "/> <polygon fill="#4090D7" points="20.138,47.24 37.399,57.031 37.399,37.55 20.138,27.759 "/> <polygon fill="#4090D7" points="54.66,27.557 37.5,17.766 20.34,27.557 37.5,37.247 "/> <polygon fill="#96BF3D" points="37.5,36.238 52.944,27.557 52.944,27.557 "/> <polygon fill="#96BF3D" points="22.056,27.557 22.056,27.557 37.5,36.238 37.5,36.238 "/> <polygon fill="#96BF3D" points="37.5,36.238 37.5,36.238 37.5,36.238 "/> <path fill="#FFFFFF" d="M54.963,26.346L37.5,16.453l-17.463,9.893l-1.01,0.605v1.211v19.785l17.464,9.892l1.009,0.606l1.01-0.606 l17.463-9.892V28.062v-1.211L54.963,26.346z M53.953,46.735L38.51,55.518V38.055l15.443-8.782V46.735z M36.491,55.518l-15.444-8.782 V29.273l15.444,8.781V55.518z M22.056,27.557L37.5,18.774l15.444,8.682l0,0L37.5,36.238l0,0l0,0L22.056,27.557L22.056,27.557z"/>  </g></g><g id="ProcessOnG1035" transform="matrix(1.0,0.0,0.0,1.0,1534.5,898.5)" opacity="1.0"><g id="ProcessOnG1037" transform="matrix(1.0,0.0,0.0,1.0,0.0,0.0)"> <polygon fill="#FFFFFF" points="37.5,73.788 69.499,55.618 69.499,19.279 37.5,37.449 "/> <polygon fill="#FFFFFF" points="5.502,55.518 37.5,73.688 37.5,37.449 5.502,19.279 "/> <polygon fill="#FFFFFF" points="69.297,19.279 37.5,1.211 5.703,19.279 37.5,37.349 "/> <polygon fill="#FFFFFF" points="37.5,36.238 67.479,19.279 67.379,19.279 "/> <polygon fill="#FFFFFF" points="7.621,19.279 7.521,19.279 37.5,36.238 37.5,36.238 "/> <polygon fill="#FFFFFF" points="37.5,36.238 37.5,36.238 37.5,36.238 "/> <path fill="#444444" d="M69.499,18.068L37.5,0L5.502,18.068l-1.01,0.605v1.212v36.339l31.999,18.169L37.5,75l1.01-0.606 l31.998-18.169V19.886v-1.212L69.499,18.068z M68.489,55.013L38.51,71.971V37.954l29.979-16.958V55.013z M36.491,71.971 L6.511,55.013V20.996l29.98,16.958V71.971z M7.621,19.279L37.5,2.321l29.879,16.958l0,0L37.5,36.238l0,0l0,0L7.621,19.279 L7.621,19.279z"/> <polygon fill="#4090D7" points="37.602,57.031 54.862,47.24 54.862,27.759 37.602,37.55 "/> <polygon fill="#4090D7" points="20.138,47.24 37.399,57.031 37.399,37.55 20.138,27.759 "/> <polygon fill="#4090D7" points="54.66,27.557 37.5,17.766 20.34,27.557 37.5,37.247 "/> <polygon fill="#96BF3D" points="37.5,36.238 52.944,27.557 52.944,27.557 "/> <polygon fill="#96BF3D" points="22.056,27.557 22.056,27.557 37.5,36.238 37.5,36.238 "/> <polygon fill="#96BF3D" points="37.5,36.238 37.5,36.238 37.5,36.238 "/> <path fill="#FFFFFF" d="M54.963,26.346L37.5,16.453l-17.463,9.893l-1.01,0.605v1.211v19.785l17.464,9.892l1.009,0.606l1.01-0.606 l17.463-9.892V28.062v-1.211L54.963,26.346z M53.953,46.735L38.51,55.518V38.055l15.443-8.782V46.735z M36.491,55.518l-15.444-8.782 V29.273l15.444,8.781V55.518z M22.056,27.557L37.5,18.774l15.444,8.682l0,0L37.5,36.238l0,0l0,0L22.056,27.557L22.056,27.557z"/>  </g></g><g id="ProcessOnG1038" transform="matrix(1.0,0.0,0.0,1.0,1727.5,272.5)" opacity="1.0"><g id="ProcessOnG1040" transform="matrix(1.0,0.0,0.0,1.0,0.0,0.0)"> <g id="Layer_1"> <polygon fill="#FFFFFF" points="37.5,73.789 69.499,55.619 69.499,19.28 37.5,37.45 "/> <polygon fill="#FFFFFF" points="5.502,55.519 37.5,73.688 37.5,37.45 5.502,19.28 "/> <polygon fill="#FFFFFF" points="69.297,19.28 37.5,1.212 5.703,19.28 37.5,37.349 "/> <polygon fill="#FFFFFF" points="37.5,36.238 67.479,19.28 67.378,19.28 "/> <polygon fill="#FFFFFF" points="7.621,19.28 7.521,19.28 37.5,36.238 37.5,36.238 "/> <polygon fill="#FFFFFF" points="37.5,36.238 37.5,36.238 37.5,36.238 "/> <path fill="#444444" d="M69.499,18.069L37.5,0L5.502,18.069l-1.01,0.605v1.211v36.339l31.999,18.169L37.5,75l1.01-0.606 l31.998-18.169V19.886v-1.211L69.499,18.069z M68.489,55.014L38.51,71.972V37.954l29.979-16.958V55.014z M36.491,71.972 L6.511,55.014V20.997l29.98,16.958V71.972z M7.621,19.28L37.5,2.322L67.378,19.28l0,0L37.5,36.238l0,0l0,0L7.621,19.28L7.621,19.28 z"/> <polygon fill="#AE1F23" points="37.602,57.033 54.862,47.241 54.862,27.759 37.602,37.551 "/> <polygon fill="#AE1F23" points="20.138,47.241 37.399,57.033 37.399,37.551 20.138,27.759 "/> <polygon fill="#AE1F23" points="54.66,27.558 37.5,17.766 20.34,27.558 37.5,37.248 "/> <polygon fill="#96BF3D" points="37.5,36.238 52.944,27.558 52.944,27.558 "/> <polygon fill="#96BF3D" points="22.057,27.558 22.057,27.558 37.5,36.238 37.5,36.238 "/> <polygon fill="#96BF3D" points="37.5,36.238 37.5,36.238 37.5,36.238 "/> <path fill="#FFFFFF" d="M54.963,26.346L37.5,16.454l-17.463,9.892l-1.009,0.605v1.211v19.785l17.463,9.892l1.009,0.605l1.01-0.605 l17.462-9.892V28.063v-1.211L54.963,26.346z M53.953,46.736L38.51,55.519V38.055l15.443-8.781V46.736z M36.491,55.519 l-15.444-8.782V29.273l15.444,8.781V55.519z M22.057,27.558L37.5,18.775l15.444,8.681l0,0L37.5,36.238l0,0l0,0L22.057,27.558 L22.057,27.558z"/> </g>  </g><g id="ProcessOnG1041" transform="matrix(1.0,0.0,0.0,1.0,-20.0,80.0)"><text id="ProcessOnText1042" fill="#000000" font-size="16" x="56.5" y="16.4" font-family="微软雅黑" font-weight="bold" font-style="normal" text-decoration="none" family="微软雅黑" text-anchor="middle" size="16">Kibana_1</text></g></g><g id="ProcessOnG1043" transform="matrix(1.0,0.0,0.0,1.0,1730.5,465.5)" opacity="1.0"><g id="ProcessOnG1045" transform="matrix(1.0,0.0,0.0,1.0,0.0,0.0)"> <g id="Layer_1"> <polygon fill="#FFFFFF" points="37.5,73.789 69.499,55.619 69.499,19.28 37.5,37.45 "/> <polygon fill="#FFFFFF" points="5.502,55.519 37.5,73.688 37.5,37.45 5.502,19.28 "/> <polygon fill="#FFFFFF" points="69.297,19.28 37.5,1.212 5.703,19.28 37.5,37.349 "/> <polygon fill="#FFFFFF" points="37.5,36.238 67.479,19.28 67.378,19.28 "/> <polygon fill="#FFFFFF" points="7.621,19.28 7.521,19.28 37.5,36.238 37.5,36.238 "/> <polygon fill="#FFFFFF" points="37.5,36.238 37.5,36.238 37.5,36.238 "/> <path fill="#444444" d="M69.499,18.069L37.5,0L5.502,18.069l-1.01,0.605v1.211v36.339l31.999,18.169L37.5,75l1.01-0.606 l31.998-18.169V19.886v-1.211L69.499,18.069z M68.489,55.014L38.51,71.972V37.954l29.979-16.958V55.014z M36.491,71.972 L6.511,55.014V20.997l29.98,16.958V71.972z M7.621,19.28L37.5,2.322L67.378,19.28l0,0L37.5,36.238l0,0l0,0L7.621,19.28L7.621,19.28 z"/> <polygon fill="#AE1F23" points="37.602,57.033 54.862,47.241 54.862,27.759 37.602,37.551 "/> <polygon fill="#AE1F23" points="20.138,47.241 37.399,57.033 37.399,37.551 20.138,27.759 "/> <polygon fill="#AE1F23" points="54.66,27.558 37.5,17.766 20.34,27.558 37.5,37.248 "/> <polygon fill="#96BF3D" points="37.5,36.238 52.944,27.558 52.944,27.558 "/> <polygon fill="#96BF3D" points="22.057,27.558 22.057,27.558 37.5,36.238 37.5,36.238 "/> <polygon fill="#96BF3D" points="37.5,36.238 37.5,36.238 37.5,36.238 "/> <path fill="#FFFFFF" d="M54.963,26.346L37.5,16.454l-17.463,9.892l-1.009,0.605v1.211v19.785l17.463,9.892l1.009,0.605l1.01-0.605 l17.462-9.892V28.063v-1.211L54.963,26.346z M53.953,46.736L38.51,55.519V38.055l15.443-8.781V46.736z M36.491,55.519 l-15.444-8.782V29.273l15.444,8.781V55.519z M22.057,27.558L37.5,18.775l15.444,8.681l0,0L37.5,36.238l0,0l0,0L22.057,27.558 L22.057,27.558z"/> </g>  </g><g id="ProcessOnG1046" transform="matrix(1.0,0.0,0.0,1.0,-20.0,80.0)"><text id="ProcessOnText1047" fill="#000000" font-size="16" x="56.5" y="16.4" font-family="微软雅黑" font-weight="bold" font-style="normal" text-decoration="none" family="微软雅黑" text-anchor="middle" size="16">Kibana_2</text></g></g><g id="ProcessOnG1048" transform="matrix(1.0,0.0,0.0,1.0,1450.25,1005.25)" opacity="1.0"><g id="ProcessOnG1050" transform="matrix(0.6228070175438597,0.0,0.0,0.66,0.0,0.0)"> <path fill="#00BCF2" d="M28.535,0C13.121,0,0.625,4.019,0.142,9.037h-0.07V65.18C0.045,65.339,0,65.518,0,65.678 c0,0.102,0.062,0.187,0.071,0.285C0.554,70.979,13.051,75,28.464,75c15.414,0,27.909-4.021,28.393-9.037H57V9.037h-0.07 C56.444,4.019,43.949,0,28.535,0L28.535,0z M28.891,4.341c11.948,0,21.632,2.624,21.632,5.835c0,3.21-9.684,5.835-21.632,5.835 c-11.949,0-21.633-2.625-21.633-5.835C7.259,6.965,16.941,4.341,28.891,4.341z M9.392,34.013h7.829c1.772,0,3.121,0.088,4.055,0.284 c1.308,0.271,2.422,0.785,3.346,1.494c1.204,0.914,2.106,2.063,2.704,3.486c0.598,1.423,0.925,3.08,0.925,4.91 c0,1.559-0.235,2.922-0.641,4.127c-0.404,1.203-0.933,2.199-1.565,2.987c-0.633,0.789-1.312,1.397-2.063,1.851 c-0.753,0.453-1.642,0.834-2.705,1.067s-2.319,0.355-3.699,0.355H9.392V34.013L9.392,34.013z M32.307,34.013h8.54 c1.741,0,3.145,0.225,4.196,0.64c1.056,0.415,1.896,1.059,2.49,1.922c0.598,0.863,0.854,1.762,0.854,2.702 c0,0.879-0.254,1.718-0.783,2.49c-0.528,0.774-1.351,1.375-2.42,1.852c1.381,0.363,2.461,0.974,3.203,1.85 c0.741,0.879,1.139,1.938,1.139,3.133c0,0.961-0.26,1.877-0.713,2.703c-0.451,0.826-0.972,1.475-1.637,1.922 c-0.664,0.446-1.488,0.768-2.49,0.996c-1.002,0.228-2.246,0.354-3.699,0.354h-8.683V34.013H32.307z M12.382,36.432v15.726h4.84 c1.504,0,2.7-0.176,3.558-0.428c0.856-0.252,1.555-0.609,2.063-1.066c0.717-0.645,1.309-1.475,1.709-2.563 c0.399-1.086,0.569-2.436,0.569-3.984c-0.001-2.146-0.428-3.758-1.21-4.91c-0.785-1.15-1.727-1.955-2.848-2.348 c-0.811-0.28-2.118-0.427-3.913-0.427H12.382z M35.295,36.432v6.19h4.91c1.339,0,2.337-0.056,2.919-0.213 c0.768-0.206,1.318-0.521,1.707-0.997s0.568-1.061,0.568-1.778c0-0.682-0.135-1.333-0.498-1.85 c-0.362-0.519-0.892-0.877-1.564-1.068c-0.674-0.19-1.848-0.284-3.486-0.284H35.295L35.295,36.432z M35.295,45.042v7.116h5.692 c0.977,0,1.671-0.077,2.064-0.143c0.694-0.113,1.24-0.309,1.707-0.57c0.467-0.26,0.838-0.639,1.139-1.139 c0.302-0.498,0.498-1.054,0.498-1.707c0-0.766-0.205-1.428-0.641-1.992c-0.438-0.564-1.077-0.98-1.852-1.211 c-0.771-0.229-1.891-0.354-3.344-0.354H35.295L35.295,45.042z"/>  </g></g><g id="ProcessOnG1051" transform="matrix(1.0,0.0,0.0,1.0,1554.25,1005.25)" opacity="1.0"><g id="ProcessOnG1053" transform="matrix(0.6228070175438597,0.0,0.0,0.66,0.0,0.0)"> <path fill="#00BCF2" d="M28.535,0C13.121,0,0.625,4.019,0.142,9.037h-0.07V65.18C0.045,65.339,0,65.518,0,65.678 c0,0.102,0.062,0.187,0.071,0.285C0.554,70.979,13.051,75,28.464,75c15.414,0,27.909-4.021,28.393-9.037H57V9.037h-0.07 C56.444,4.019,43.949,0,28.535,0L28.535,0z M28.891,4.341c11.948,0,21.632,2.624,21.632,5.835c0,3.21-9.684,5.835-21.632,5.835 c-11.949,0-21.633-2.625-21.633-5.835C7.259,6.965,16.941,4.341,28.891,4.341z M9.392,34.013h7.829c1.772,0,3.121,0.088,4.055,0.284 c1.308,0.271,2.422,0.785,3.346,1.494c1.204,0.914,2.106,2.063,2.704,3.486c0.598,1.423,0.925,3.08,0.925,4.91 c0,1.559-0.235,2.922-0.641,4.127c-0.404,1.203-0.933,2.199-1.565,2.987c-0.633,0.789-1.312,1.397-2.063,1.851 c-0.753,0.453-1.642,0.834-2.705,1.067s-2.319,0.355-3.699,0.355H9.392V34.013L9.392,34.013z M32.307,34.013h8.54 c1.741,0,3.145,0.225,4.196,0.64c1.056,0.415,1.896,1.059,2.49,1.922c0.598,0.863,0.854,1.762,0.854,2.702 c0,0.879-0.254,1.718-0.783,2.49c-0.528,0.774-1.351,1.375-2.42,1.852c1.381,0.363,2.461,0.974,3.203,1.85 c0.741,0.879,1.139,1.938,1.139,3.133c0,0.961-0.26,1.877-0.713,2.703c-0.451,0.826-0.972,1.475-1.637,1.922 c-0.664,0.446-1.488,0.768-2.49,0.996c-1.002,0.228-2.246,0.354-3.699,0.354h-8.683V34.013H32.307z M12.382,36.432v15.726h4.84 c1.504,0,2.7-0.176,3.558-0.428c0.856-0.252,1.555-0.609,2.063-1.066c0.717-0.645,1.309-1.475,1.709-2.563 c0.399-1.086,0.569-2.436,0.569-3.984c-0.001-2.146-0.428-3.758-1.21-4.91c-0.785-1.15-1.727-1.955-2.848-2.348 c-0.811-0.28-2.118-0.427-3.913-0.427H12.382z M35.295,36.432v6.19h4.91c1.339,0,2.337-0.056,2.919-0.213 c0.768-0.206,1.318-0.521,1.707-0.997s0.568-1.061,0.568-1.778c0-0.682-0.135-1.333-0.498-1.85 c-0.362-0.519-0.892-0.877-1.564-1.068c-0.674-0.19-1.848-0.284-3.486-0.284H35.295L35.295,36.432z M35.295,45.042v7.116h5.692 c0.977,0,1.671-0.077,2.064-0.143c0.694-0.113,1.24-0.309,1.707-0.57c0.467-0.26,0.838-0.639,1.139-1.139 c0.302-0.498,0.498-1.054,0.498-1.707c0-0.766-0.205-1.428-0.641-1.992c-0.438-0.564-1.077-0.98-1.852-1.211 c-0.771-0.229-1.891-0.354-3.344-0.354H35.295L35.295,45.042z"/>  </g></g><g id="ProcessOnG1054"><path id="ProcessOnPath1055" d="M1572.0 973.5L1572.0 989.375L1572.0 989.375L1572.0 1005.25" stroke="#323232" stroke-width="2.0" stroke-dasharray="none" fill="none"/></g><g id="ProcessOnG1056"><path id="ProcessOnPath1057" d="M1468.0 973.5L1468.0 989.375L1468.0 989.375L1468.0 1005.25" stroke="#323232" stroke-width="2.0" stroke-dasharray="none" fill="none"/></g><g id="ProcessOnG1058" transform="matrix(1.0,0.0,0.0,1.0,663.5,270.0)" opacity="1.0"><g id="ProcessOnG1060" transform="matrix(1.0,0.0,0.0,1.0,0.0,0.0)"> <g id="g12" transform="scale(0.1,0.1)"> <path id="path22" fill="#087FBF" d="M709.995,185.508v329.58l-58.457,100.605V286.054L709.995,185.508"/> <path id="path24" fill="none" stroke="#FFFFFF" stroke-width="4" d="M709.995,185.508v329.58l-58.457,100.605V286.054 L709.995,185.508z"/> <path id="path26" fill="#087FBF" d="M144.785,95.078H0L58.472,0h144.785l361.992,185.508h144.746l-58.457,100.547H506.733"/> <path id="path28" fill="none" stroke="#FFFFFF" stroke-width="4" d="M144.785,95.078H0L58.472,0h144.785l361.992,185.508h144.746 l-58.457,100.547H506.733"/> <path id="path30" fill="#087FBF" d="M145.186,95.493l361.938,190.561h-0.391h144.805v329.639H506.733h0.391L145.186,800l-0.4-0.576 H0V94.761h144.785L145.186,95.493"/> <path id="path32" fill="none" stroke="#FFFFFF" stroke-width="4" d="M145.186,95.493l361.938,190.561h-0.391h144.805v329.639 H506.733h0.391L145.186,800l-0.4-0.576H0V94.761h144.785L145.186,95.493z"/> <path id="path34" fill="#FFFFFF" d="M472.925,439.785v-42.578l127.539,52.041l-127.539,52.744v-42.637H189.233v-19.57H472.925"/> <path id="path36" fill="#FFFFFF" d="M180.522,283.574v-16.797h198.535l125.137,68.877l20.43-37.363l86.777,107.188l-137.051-15.322 l20.469-37.383l-115.059-67.471L180.522,283.574"/> <path id="path38" fill="#FFFFFF" d="M379.761,617.304l115.059-67.441l-20.469-37.393l137.051-15.371l-86.777,107.256l-20.43-37.393 L379.058,635.83H180.522v-16.797L379.761,617.304"/> </g>  </g></g><g id="ProcessOnG1061" transform="matrix(1.0,0.0,0.0,1.0,763.5,282.5)" opacity="1.0"><g id="ProcessOnG1063" transform="matrix(1.0,0.0,0.0,1.0,0.0,0.0)"> <g id="g12" transform="scale(0.1,0.1)"> <path id="path22" fill="#087FBF" d="M0.005,530h690.503V76.294H0.005V530z"/> <path id="path24" fill="none" stroke="#FFFFFF" stroke-width="4" d="M0.005,530h690.503V76.294H0.005V530z"/> <path id="path26" fill="#087FBF" d="M770,413.711L690.508,530V76.294L770-20V413.711"/> <path id="path28" fill="none" stroke="#FFFFFF" stroke-width="4" d="M770,413.711L690.508,530V76.294L770-20V413.711z"/> <path id="path30" fill="#087FBF" d="M119.18-20H770l-79.492,96.294H0.005L119.18-20"/> <path id="path32" fill="none" stroke="#FFFFFF" stroke-width="4" d="M119.18-20H770l-79.492,96.294H0.005L119.18-20z"/> <path id="path34" fill="#FFFFFF" d="M212.495,322.148l-115.576,0.273v-18.496l115.576-0.059l0.039-28.677l67.065,37.817 l-67.065,38.027L212.495,322.148"/> <path id="path36" fill="#FFFFFF" d="M453.223,322.148l-115.708,0.273v-18.496l115.708-0.059l0.02-28.677l66.953,37.817 l-66.953,38.027L453.223,322.148"/> <path id="path38" fill="#FFFFFF" d="M433.145,229.644l-96.958,62.993l-9.932-15.337l96.968-63.066l-15.664-24.194l76.777-4.634 l-35.469,68.311L433.145,229.644"/> <path id="path40" fill="#FFFFFF" d="M433.145,395.449l-96.958-63.105l-9.932,15.352l96.968,63.047l-15.664,24.082l76.777,4.863 l-35.469-68.32L433.145,395.449"/> <path id="path42" fill="none" stroke="#FFFFFF" stroke-width="4" d="M246.704,163.594 c-111.406-22.222-170.273,34.868-160.952,84.165l0.752,2.666c-86.836,14.844-64.043,117.271-22.456,117.271l4.111-0.098 c-10.503,48.164,90.986,97.109,147.627,72.558l3.662-3.926c20.117,43.379,91.836,50.488,162.666,52.422 c61.499,1.543,97.417-3.398,123.745-30.176l3.984,1.074c98.379,7.988,143.027-60.058,121.66-108.633l5.293-1.504 c33.418-8.906,37.461-86.294-20.176-97.808l1.23-3.008c24.922-50.347-34.082-97.798-115.684-88.843l-5.781-2.974 c-58.535-52.969-226.802-44.336-246.318,8.013L246.704,163.594z"/> </g>  </g></g><g id="ProcessOnG1064"><path id="ProcessOnPath1065" d="M734.5 310.0L749.0 310.0L749.0 310.0L763.5 310.0" stroke="#323232" stroke-width="2.0" stroke-dasharray="none" fill="none"/></g><g id="ProcessOnG1066" transform="matrix(1.0,0.0,0.0,1.0,599.0,232.5)" opacity="1.0"><path id="ProcessOnPath1067" d="M0.0 0.0L160.0 0.0L160.0 40.0L0.0 40.0Z" stroke="none" stroke-width="0.0" stroke-dasharray="none" opacity="1.0" fill="none"/><g id="ProcessOnG1068" transform="matrix(1.0,0.0,0.0,1.0,0.0,10.0)"><text id="ProcessOnText1069" fill="#a1a1a1" font-size="16" x="79.0" y="16.4" font-family="微软雅黑" font-weight="bold" font-style="normal" text-decoration="none" family="微软雅黑" text-anchor="middle" size="16">Kafka_Broker</text></g></g><g id="ProcessOnG1070" transform="matrix(1.0,0.0,0.0,1.0,616.0,430.5)" opacity="1.0"><path id="ProcessOnPath1071" d="M0.0 4.0Q0.0 0.0 4.0 0.0L282.0 0.0Q286.0 0.0 286.0 4.0L286.0 141.0Q286.0 145.0 282.0 145.0L4.0 145.0Q0.0 145.0 0.0 141.0Z" stroke="#323232" stroke-width="2.0" stroke-dasharray="10.0 4.0" opacity="1.0" fill="#ffffff"/></g><g id="ProcessOnG1072" transform="matrix(1.0,0.0,0.0,1.0,663.5,463.0)" opacity="1.0"><g id="ProcessOnG1074" transform="matrix(1.0,0.0,0.0,1.0,0.0,0.0)"> <g id="g12" transform="scale(0.1,0.1)"> <path id="path22" fill="#087FBF" d="M709.995,185.508v329.58l-58.457,100.605V286.054L709.995,185.508"/> <path id="path24" fill="none" stroke="#FFFFFF" stroke-width="4" d="M709.995,185.508v329.58l-58.457,100.605V286.054 L709.995,185.508z"/> <path id="path26" fill="#087FBF" d="M144.785,95.078H0L58.472,0h144.785l361.992,185.508h144.746l-58.457,100.547H506.733"/> <path id="path28" fill="none" stroke="#FFFFFF" stroke-width="4" d="M144.785,95.078H0L58.472,0h144.785l361.992,185.508h144.746 l-58.457,100.547H506.733"/> <path id="path30" fill="#087FBF" d="M145.186,95.493l361.938,190.561h-0.391h144.805v329.639H506.733h0.391L145.186,800l-0.4-0.576 H0V94.761h144.785L145.186,95.493"/> <path id="path32" fill="none" stroke="#FFFFFF" stroke-width="4" d="M145.186,95.493l361.938,190.561h-0.391h144.805v329.639 H506.733h0.391L145.186,800l-0.4-0.576H0V94.761h144.785L145.186,95.493z"/> <path id="path34" fill="#FFFFFF" d="M472.925,439.785v-42.578l127.539,52.041l-127.539,52.744v-42.637H189.233v-19.57H472.925"/> <path id="path36" fill="#FFFFFF" d="M180.522,283.574v-16.797h198.535l125.137,68.877l20.43-37.363l86.777,107.188l-137.051-15.322 l20.469-37.383l-115.059-67.471L180.522,283.574"/> <path id="path38" fill="#FFFFFF" d="M379.761,617.304l115.059-67.441l-20.469-37.393l137.051-15.371l-86.777,107.256l-20.43-37.393 L379.058,635.83H180.522v-16.797L379.761,617.304"/> </g>  </g></g><g id="ProcessOnG1075" transform="matrix(1.0,0.0,0.0,1.0,763.5,475.5)" opacity="1.0"><g id="ProcessOnG1077" transform="matrix(1.0,0.0,0.0,1.0,0.0,0.0)"> <g id="g12" transform="scale(0.1,0.1)"> <path id="path22" fill="#087FBF" d="M0.005,530h690.503V76.294H0.005V530z"/> <path id="path24" fill="none" stroke="#FFFFFF" stroke-width="4" d="M0.005,530h690.503V76.294H0.005V530z"/> <path id="path26" fill="#087FBF" d="M770,413.711L690.508,530V76.294L770-20V413.711"/> <path id="path28" fill="none" stroke="#FFFFFF" stroke-width="4" d="M770,413.711L690.508,530V76.294L770-20V413.711z"/> <path id="path30" fill="#087FBF" d="M119.18-20H770l-79.492,96.294H0.005L119.18-20"/> <path id="path32" fill="none" stroke="#FFFFFF" stroke-width="4" d="M119.18-20H770l-79.492,96.294H0.005L119.18-20z"/> <path id="path34" fill="#FFFFFF" d="M212.495,322.148l-115.576,0.273v-18.496l115.576-0.059l0.039-28.677l67.065,37.817 l-67.065,38.027L212.495,322.148"/> <path id="path36" fill="#FFFFFF" d="M453.223,322.148l-115.708,0.273v-18.496l115.708-0.059l0.02-28.677l66.953,37.817 l-66.953,38.027L453.223,322.148"/> <path id="path38" fill="#FFFFFF" d="M433.145,229.644l-96.958,62.993l-9.932-15.337l96.968-63.066l-15.664-24.194l76.777-4.634 l-35.469,68.311L433.145,229.644"/> <path id="path40" fill="#FFFFFF" d="M433.145,395.449l-96.958-63.105l-9.932,15.352l96.968,63.047l-15.664,24.082l76.777,4.863 l-35.469-68.32L433.145,395.449"/> <path id="path42" fill="none" stroke="#FFFFFF" stroke-width="4" d="M246.704,163.594 c-111.406-22.222-170.273,34.868-160.952,84.165l0.752,2.666c-86.836,14.844-64.043,117.271-22.456,117.271l4.111-0.098 c-10.503,48.164,90.986,97.109,147.627,72.558l3.662-3.926c20.117,43.379,91.836,50.488,162.666,52.422 c61.499,1.543,97.417-3.398,123.745-30.176l3.984,1.074c98.379,7.988,143.027-60.058,121.66-108.633l5.293-1.504 c33.418-8.906,37.461-86.294-20.176-97.808l1.23-3.008c24.922-50.347-34.082-97.798-115.684-88.843l-5.781-2.974 c-58.535-52.969-226.802-44.336-246.318,8.013L246.704,163.594z"/> </g>  </g></g><g id="ProcessOnG1078"><path id="ProcessOnPath1079" d="M734.5 503.0L749.0 503.0L749.0 503.0L763.5 503.0" stroke="#323232" stroke-width="2.0" stroke-dasharray="none" fill="none"/></g><g id="ProcessOnG1080" transform="matrix(1.0,0.0,0.0,1.0,616.0,630.5)" opacity="1.0"><path id="ProcessOnPath1081" d="M0.0 4.0Q0.0 0.0 4.0 0.0L282.0 0.0Q286.0 0.0 286.0 4.0L286.0 141.0Q286.0 145.0 282.0 145.0L4.0 145.0Q0.0 145.0 0.0 141.0Z" stroke="#323232" stroke-width="2.0" stroke-dasharray="10.0 4.0" opacity="1.0" fill="#ffffff"/></g><g id="ProcessOnG1082" transform="matrix(1.0,0.0,0.0,1.0,663.5,663.0)" opacity="1.0"><g id="ProcessOnG1084" transform="matrix(1.0,0.0,0.0,1.0,0.0,0.0)"> <g id="g12" transform="scale(0.1,0.1)"> <path id="path22" fill="#087FBF" d="M709.995,185.508v329.58l-58.457,100.605V286.054L709.995,185.508"/> <path id="path24" fill="none" stroke="#FFFFFF" stroke-width="4" d="M709.995,185.508v329.58l-58.457,100.605V286.054 L709.995,185.508z"/> <path id="path26" fill="#087FBF" d="M144.785,95.078H0L58.472,0h144.785l361.992,185.508h144.746l-58.457,100.547H506.733"/> <path id="path28" fill="none" stroke="#FFFFFF" stroke-width="4" d="M144.785,95.078H0L58.472,0h144.785l361.992,185.508h144.746 l-58.457,100.547H506.733"/> <path id="path30" fill="#087FBF" d="M145.186,95.493l361.938,190.561h-0.391h144.805v329.639H506.733h0.391L145.186,800l-0.4-0.576 H0V94.761h144.785L145.186,95.493"/> <path id="path32" fill="none" stroke="#FFFFFF" stroke-width="4" d="M145.186,95.493l361.938,190.561h-0.391h144.805v329.639 H506.733h0.391L145.186,800l-0.4-0.576H0V94.761h144.785L145.186,95.493z"/> <path id="path34" fill="#FFFFFF" d="M472.925,439.785v-42.578l127.539,52.041l-127.539,52.744v-42.637H189.233v-19.57H472.925"/> <path id="path36" fill="#FFFFFF" d="M180.522,283.574v-16.797h198.535l125.137,68.877l20.43-37.363l86.777,107.188l-137.051-15.322 l20.469-37.383l-115.059-67.471L180.522,283.574"/> <path id="path38" fill="#FFFFFF" d="M379.761,617.304l115.059-67.441l-20.469-37.393l137.051-15.371l-86.777,107.256l-20.43-37.393 L379.058,635.83H180.522v-16.797L379.761,617.304"/> </g>  </g></g><g id="ProcessOnG1085" transform="matrix(1.0,0.0,0.0,1.0,763.5,675.5)" opacity="1.0"><g id="ProcessOnG1087" transform="matrix(1.0,0.0,0.0,1.0,0.0,0.0)"> <g id="g12" transform="scale(0.1,0.1)"> <path id="path22" fill="#087FBF" d="M0.005,530h690.503V76.294H0.005V530z"/> <path id="path24" fill="none" stroke="#FFFFFF" stroke-width="4" d="M0.005,530h690.503V76.294H0.005V530z"/> <path id="path26" fill="#087FBF" d="M770,413.711L690.508,530V76.294L770-20V413.711"/> <path id="path28" fill="none" stroke="#FFFFFF" stroke-width="4" d="M770,413.711L690.508,530V76.294L770-20V413.711z"/> <path id="path30" fill="#087FBF" d="M119.18-20H770l-79.492,96.294H0.005L119.18-20"/> <path id="path32" fill="none" stroke="#FFFFFF" stroke-width="4" d="M119.18-20H770l-79.492,96.294H0.005L119.18-20z"/> <path id="path34" fill="#FFFFFF" d="M212.495,322.148l-115.576,0.273v-18.496l115.576-0.059l0.039-28.677l67.065,37.817 l-67.065,38.027L212.495,322.148"/> <path id="path36" fill="#FFFFFF" d="M453.223,322.148l-115.708,0.273v-18.496l115.708-0.059l0.02-28.677l66.953,37.817 l-66.953,38.027L453.223,322.148"/> <path id="path38" fill="#FFFFFF" d="M433.145,229.644l-96.958,62.993l-9.932-15.337l96.968-63.066l-15.664-24.194l76.777-4.634 l-35.469,68.311L433.145,229.644"/> <path id="path40" fill="#FFFFFF" d="M433.145,395.449l-96.958-63.105l-9.932,15.352l96.968,63.047l-15.664,24.082l76.777,4.863 l-35.469-68.32L433.145,395.449"/> <path id="path42" fill="none" stroke="#FFFFFF" stroke-width="4" d="M246.704,163.594 c-111.406-22.222-170.273,34.868-160.952,84.165l0.752,2.666c-86.836,14.844-64.043,117.271-22.456,117.271l4.111-0.098 c-10.503,48.164,90.986,97.109,147.627,72.558l3.662-3.926c20.117,43.379,91.836,50.488,162.666,52.422 c61.499,1.543,97.417-3.398,123.745-30.176l3.984,1.074c98.379,7.988,143.027-60.058,121.66-108.633l5.293-1.504 c33.418-8.906,37.461-86.294-20.176-97.808l1.23-3.008c24.922-50.347-34.082-97.798-115.684-88.843l-5.781-2.974 c-58.535-52.969-226.802-44.336-246.318,8.013L246.704,163.594z"/> </g>  </g></g><g id="ProcessOnG1088"><path id="ProcessOnPath1089" d="M734.5 703.0L749.0 703.0L749.0 703.0L763.5 703.0" stroke="#323232" stroke-width="2.0" stroke-dasharray="none" fill="none"/></g><g id="ProcessOnG1090"><path id="ProcessOnPath1091" d="M600.7639320225002 310.0L537.0 310.0L537.0 502.0L458.0 502.0" stroke="#323232" stroke-width="2.0" stroke-dasharray="none" fill="none" marker-start="url(#ProcessOnMarker1092)"/></g><g id="ProcessOnG1094" transform="matrix(1.0,0.0,0.0,1.0,373.0,463.0)" opacity="1.0"><path id="ProcessOnPath1095" d="M10.799999999999999 49.0C-9.0 35.0 3.6 24.5 8.1 21.0C6.300000000000001 3.5 28.8 0.0 37.8 7.0C45.0 -3.5 67.5 0.0 67.5 10.5C85.5 7.0 92.7 21.0 85.5 38.5C91.8 52.5 85.5 70.0 64.8 63.0C60.300000000000004 72.10000000000001 42.3 72.10000000000001 37.8 63.0C28.8 70.0 10.799999999999999 66.5 10.799999999999999 49.0Z" stroke="#323232" stroke-width="2.0" stroke-dasharray="none" opacity="1.0" fill="#ffffff"/><g id="ProcessOnG1096" transform="matrix(1.0,0.0,0.0,1.0,10.0,25.0)"><text id="ProcessOnText1097" fill="#000000" font-size="16" x="34.0" y="16.4" font-family="微软雅黑" font-weight="bold" font-style="normal" text-decoration="none" family="微软雅黑" text-anchor="middle" size="16">Logs</text></g></g><g id="ProcessOnG1098"><path id="ProcessOnPath1099" d="M600.7639320225002 503.0L537.0 503.0L537.0 502.0L458.0 502.0" stroke="#323232" stroke-width="2.0" stroke-dasharray="none" fill="none" marker-start="url(#ProcessOnMarker1100)"/></g><g id="ProcessOnG1102"><path id="ProcessOnPath1103" d="M600.7639320225002 703.0L537.5095132547706 703.0L537.5095132547706 503.4357787137383L459.0190265095413 503.4357787137383" stroke="#323232" stroke-width="2.0" stroke-dasharray="none" fill="none" marker-start="url(#ProcessOnMarker1104)"/></g><g id="ProcessOnG1106" transform="matrix(1.0,0.0,0.0,1.0,599.0,430.5)" opacity="1.0"><path id="ProcessOnPath1107" d="M0.0 0.0L160.0 0.0L160.0 40.0L0.0 40.0Z" stroke="none" stroke-width="0.0" stroke-dasharray="none" opacity="1.0" fill="none"/><g id="ProcessOnG1108" transform="matrix(1.0,0.0,0.0,1.0,0.0,10.0)"><text id="ProcessOnText1109" fill="#a1a1a1" font-size="16" x="79.0" y="16.4" font-family="微软雅黑" font-weight="bold" font-style="normal" text-decoration="none" family="微软雅黑" text-anchor="middle" size="16">Kafka_Broker</text></g></g><g id="ProcessOnG1110" transform="matrix(1.0,0.0,0.0,1.0,599.0,627.5)" opacity="1.0"><path id="ProcessOnPath1111" d="M0.0 0.0L160.0 0.0L160.0 40.0L0.0 40.0Z" stroke="none" stroke-width="0.0" stroke-dasharray="none" opacity="1.0" fill="none"/><g id="ProcessOnG1112" transform="matrix(1.0,0.0,0.0,1.0,0.0,10.0)"><text id="ProcessOnText1113" fill="#a1a1a1" font-size="16" x="79.0" y="16.4" font-family="微软雅黑" font-weight="bold" font-style="normal" text-decoration="none" family="微软雅黑" text-anchor="middle" size="16">Kafka_Broker</text></g></g><g id="ProcessOnG1114"><path id="ProcessOnPath1115" d="M902.0 310.0L984.5 310.0L984.5 310.0L1051.7639320225003 310.0" stroke="#323232" stroke-width="2.0" stroke-dasharray="none" fill="none" marker-end="url(#ProcessOnMarker1116)"/></g><g id="ProcessOnG1118"><path id="ProcessOnPath1119" d="M902.0 503.0L1051.7639320225003 503.0" stroke="#323232" stroke-width="2.0" stroke-dasharray="none" fill="none" marker-end="url(#ProcessOnMarker1120)"/></g><g id="ProcessOnG1122"><path id="ProcessOnPath1123" d="M902.0 703.0L1051.7639320225003 703.0" stroke="#323232" stroke-width="2.0" stroke-dasharray="none" fill="none" marker-end="url(#ProcessOnMarker1124)"/></g><g id="ProcessOnG1126"><path id="ProcessOnPath1127" d="M759.0 397.7360679774998L759.0 415.2639320225002" stroke="#323232" stroke-width="2.0" stroke-dasharray="10.0 4.0" fill="none" marker-start="url(#ProcessOnMarker1128)" marker-end="url(#ProcessOnMarker1130)"/></g><g id="ProcessOnG1132"><path id="ProcessOnPath1133" d="M759.0 590.7360679774998L759.0 615.2639320225002" stroke="#323232" stroke-width="2.0" stroke-dasharray="10.0 4.0" fill="none" marker-start="url(#ProcessOnMarker1134)" marker-end="url(#ProcessOnMarker1136)"/></g><g id="ProcessOnG1138"><path id="ProcessOnPath1139" d="M902.0 503.0L1057.09933106774 321.58078244803755" stroke="#a1a1a1" stroke-width="2.0" stroke-dasharray="2.0 3.0" fill="none" marker-end="url(#ProcessOnMarker1140)"/></g><g id="ProcessOnG1142"><path id="ProcessOnPath1143" d="M902.0 310.0L1061.101922746409 688.9518523596288" stroke="#a1a1a1" stroke-width="2.0" stroke-dasharray="2.0 3.0" fill="none" marker-end="url(#ProcessOnMarker1144)"/></g><g id="ProcessOnG1146"><path id="ProcessOnPath1147" d="M902.0 703.0L1057.3040260410125 514.7526957078635" stroke="#a1a1a1" stroke-width="2.0" stroke-dasharray="2.0 3.0" fill="none" marker-end="url(#ProcessOnMarker1148)"/></g><g id="ProcessOnG1150"><path id="ProcessOnPath1151" d="M1067.0 310.0C1038.0 310.0 1110.5 310.0 1139.5 310.0" stroke="#323232" stroke-width="2.0" stroke-dasharray="none" fill="none" marker-end="url(#ProcessOnMarker1152)"/></g><g id="ProcessOnG1154"><path id="ProcessOnPath1155" d="M1067.0 503.0C1039.2 503.0 1108.7 503.0 1136.5 503.0" stroke="#323232" stroke-width="2.0" stroke-dasharray="none" fill="none" marker-end="url(#ProcessOnMarker1156)"/></g><g id="ProcessOnG1158"><path id="ProcessOnPath1159" d="M1067.0 703.0C1039.2 703.0 1108.7 703.0 1136.5 703.0" stroke="#323232" stroke-width="2.0" stroke-dasharray="none" fill="none" marker-end="url(#ProcessOnMarker1160)"/></g><g id="ProcessOnG1162" transform="matrix(1.0,0.0,0.0,1.0,1023.0,232.5)" opacity="1.0"><path id="ProcessOnPath1163" d="M0.0 0.0L160.0 0.0L160.0 40.0L0.0 40.0Z" stroke="none" stroke-width="0.0" stroke-dasharray="none" opacity="1.0" fill="none"/><g id="ProcessOnG1164" transform="matrix(1.0,0.0,0.0,1.0,0.0,10.0)"><text id="ProcessOnText1165" fill="#a1a1a1" font-size="16" x="79.0" y="16.4" font-family="微软雅黑" font-weight="bold" font-style="normal" text-decoration="none" family="微软雅黑" text-anchor="middle" size="16">Node</text></g></g><g id="ProcessOnG1166" transform="matrix(1.0,0.0,0.0,1.0,1023.0,430.5)" opacity="1.0"><path id="ProcessOnPath1167" d="M0.0 0.0L160.0 0.0L160.0 40.0L0.0 40.0Z" stroke="none" stroke-width="0.0" stroke-dasharray="none" opacity="1.0" fill="none"/><g id="ProcessOnG1168" transform="matrix(1.0,0.0,0.0,1.0,0.0,10.0)"><text id="ProcessOnText1169" fill="#a1a1a1" font-size="16" x="79.0" y="16.4" font-family="微软雅黑" font-weight="bold" font-style="normal" text-decoration="none" family="微软雅黑" text-anchor="middle" size="16">Node</text></g></g><g id="ProcessOnG1170" transform="matrix(1.0,0.0,0.0,1.0,1023.0,627.5)" opacity="1.0"><path id="ProcessOnPath1171" d="M0.0 0.0L160.0 0.0L160.0 40.0L0.0 40.0Z" stroke="none" stroke-width="0.0" stroke-dasharray="none" opacity="1.0" fill="none"/><g id="ProcessOnG1172" transform="matrix(1.0,0.0,0.0,1.0,0.0,10.0)"><text id="ProcessOnText1173" fill="#a1a1a1" font-size="16" x="79.0" y="16.4" font-family="微软雅黑" font-weight="bold" font-style="normal" text-decoration="none" family="微软雅黑" text-anchor="middle" size="16">Node</text></g></g><g id="ProcessOnG1174" transform="matrix(1.0,0.0,0.0,1.0,1023.0,170.0)" opacity="1.0"><path id="ProcessOnPath1175" d="M0.0 0.0L208.5 0.0L208.5 40.0L0.0 40.0Z" stroke="none" stroke-width="0.0" stroke-dasharray="none" opacity="1.0" fill="none"/><g id="ProcessOnG1176" transform="matrix(1.0,0.0,0.0,1.0,0.0,10.0)"><text id="ProcessOnText1177" fill="#a1a1a1" font-size="16" x="103.25" y="16.4" font-family="微软雅黑" font-weight="bold" font-style="normal" text-decoration="none" family="微软雅黑" text-anchor="middle" size="16">Same_Consumer_Group</text></g></g><g id="ProcessOnG1178"><path id="ProcessOnPath1179" d="M1802.5 310.0C1906.3084774958193 310.0 1872.1915225041807 503.0 1976.0 503.0" stroke="#323232" stroke-width="2.0" stroke-dasharray="none" fill="none" marker-end="url(#ProcessOnMarker1180)"/></g><g id="ProcessOnG1182"><path id="ProcessOnPath1183" d="M1805.5 503.0C1873.7 503.0 1907.8 503.0 1976.0 503.0" stroke="#323232" stroke-width="2.0" stroke-dasharray="none" fill="none" marker-end="url(#ProcessOnMarker1184)"/></g><g id="ProcessOnG1186"><path id="ProcessOnPath1187" d="M902.0 703.0L1061.101922746409 324.0481476403712" stroke="#a1a1a1" stroke-width="2.0" stroke-dasharray="2.0 3.0" fill="none" marker-end="url(#ProcessOnMarker1188)"/></g><g id="ProcessOnG1190"><path id="ProcessOnPath1191" d="M902.0 310.0L1057.09933106774 491.41921755196245" stroke="#a1a1a1" stroke-width="2.0" stroke-dasharray="2.0 3.0" fill="none" marker-end="url(#ProcessOnMarker1192)"/></g><g id="ProcessOnG1194"><path id="ProcessOnPath1195" d="M902.0 503.0L1057.3040260410125 691.2473042921365" stroke="#a1a1a1" stroke-width="2.0" stroke-dasharray="2.0 3.0" fill="none" marker-end="url(#ProcessOnMarker1196)"/></g><g id="ProcessOnG1198" transform="matrix(1.0,0.0,0.0,1.0,1430.5,465.5)" opacity="1.0"><g id="ProcessOnG1200" transform="matrix(1.0,0.0,0.0,1.0,0.0,0.0)"> <polygon fill="#FFFFFF" points="37.5,73.788 69.499,55.618 69.499,19.279 37.5,37.449 "/> <polygon fill="#FFFFFF" points="5.502,55.518 37.5,73.688 37.5,37.449 5.502,19.279 "/> <polygon fill="#FFFFFF" points="69.297,19.279 37.5,1.211 5.703,19.279 37.5,37.349 "/> <polygon fill="#FFFFFF" points="37.5,36.238 67.479,19.279 67.379,19.279 "/> <polygon fill="#FFFFFF" points="7.621,19.279 7.521,19.279 37.5,36.238 37.5,36.238 "/> <polygon fill="#FFFFFF" points="37.5,36.238 37.5,36.238 37.5,36.238 "/> <path fill="#444444" d="M69.499,18.068L37.5,0L5.502,18.068l-1.01,0.605v1.212v36.339l31.999,18.169L37.5,75l1.01-0.606 l31.998-18.169V19.886v-1.212L69.499,18.068z M68.489,55.013L38.51,71.971V37.954l29.979-16.958V55.013z M36.491,71.971 L6.511,55.013V20.996l29.98,16.958V71.971z M7.621,19.279L37.5,2.321l29.879,16.958l0,0L37.5,36.238l0,0l0,0L7.621,19.279 L7.621,19.279z"/> <polygon fill="#4090D7" points="37.602,57.031 54.862,47.24 54.862,27.759 37.602,37.55 "/> <polygon fill="#4090D7" points="20.138,47.24 37.399,57.031 37.399,37.55 20.138,27.759 "/> <polygon fill="#4090D7" points="54.66,27.557 37.5,17.766 20.34,27.557 37.5,37.247 "/> <polygon fill="#96BF3D" points="37.5,36.238 52.944,27.557 52.944,27.557 "/> <polygon fill="#96BF3D" points="22.056,27.557 22.056,27.557 37.5,36.238 37.5,36.238 "/> <polygon fill="#96BF3D" points="37.5,36.238 37.5,36.238 37.5,36.238 "/> <path fill="#FFFFFF" d="M54.963,26.346L37.5,16.453l-17.463,9.893l-1.01,0.605v1.211v19.785l17.464,9.892l1.009,0.606l1.01-0.606 l17.463-9.892V28.062v-1.211L54.963,26.346z M53.953,46.735L38.51,55.518V38.055l15.443-8.782V46.735z M36.491,55.518l-15.444-8.782 V29.273l15.444,8.781V55.518z M22.056,27.557L37.5,18.774l15.444,8.682l0,0L37.5,36.238l0,0l0,0L22.056,27.557L22.056,27.557z"/>  </g><g id="ProcessOnG1201" transform="matrix(1.0,0.0,0.0,1.0,-20.0,80.625)"><text id="ProcessOnText1202" fill="#000000" font-size="15" x="56.5" y="15.375" font-family="微软雅黑" font-weight="bold" font-style="normal" text-decoration="none" family="微软雅黑" text-anchor="middle" size="15">Elasticsearch</text></g></g><g id="ProcessOnG1203"><path id="ProcessOnPath1204" d="M1505.5 310.0L1616.5 310.0L1616.5 310.0L1727.5 310.0" stroke="#323232" stroke-width="2.0" stroke-dasharray="none" fill="none" marker-end="url(#ProcessOnMarker1205)"/></g><g id="ProcessOnG1207"><path id="ProcessOnPath1208" d="M1505.5 503.0L1618.0 503.0L1618.0 503.0L1730.5 503.0" stroke="#323232" stroke-width="2.0" stroke-dasharray="none" fill="none" marker-end="url(#ProcessOnMarker1209)"/></g><g id="ProcessOnG1211" transform="matrix(1.0,0.0,0.0,1.0,1326.5,898.5)" opacity="1.0"><g id="ProcessOnG1213" transform="matrix(1.0,0.0,0.0,1.0,0.0,0.0)"> <polygon fill="#FFFFFF" points="37.5,73.788 69.499,55.618 69.499,19.279 37.5,37.449 "/> <polygon fill="#FFFFFF" points="5.502,55.518 37.5,73.688 37.5,37.449 5.502,19.279 "/> <polygon fill="#FFFFFF" points="69.297,19.279 37.5,1.211 5.703,19.279 37.5,37.349 "/> <polygon fill="#FFFFFF" points="37.5,36.238 67.479,19.279 67.379,19.279 "/> <polygon fill="#FFFFFF" points="7.621,19.279 7.521,19.279 37.5,36.238 37.5,36.238 "/> <polygon fill="#FFFFFF" points="37.5,36.238 37.5,36.238 37.5,36.238 "/> <path fill="#444444" d="M69.499,18.068L37.5,0L5.502,18.068l-1.01,0.605v1.212v36.339l31.999,18.169L37.5,75l1.01-0.606 l31.998-18.169V19.886v-1.212L69.499,18.068z M68.489,55.013L38.51,71.971V37.954l29.979-16.958V55.013z M36.491,71.971 L6.511,55.013V20.996l29.98,16.958V71.971z M7.621,19.279L37.5,2.321l29.879,16.958l0,0L37.5,36.238l0,0l0,0L7.621,19.279 L7.621,19.279z"/> <polygon fill="#4090D7" points="37.602,57.031 54.862,47.24 54.862,27.759 37.602,37.55 "/> <polygon fill="#4090D7" points="20.138,47.24 37.399,57.031 37.399,37.55 20.138,27.759 "/> <polygon fill="#4090D7" points="54.66,27.557 37.5,17.766 20.34,27.557 37.5,37.247 "/> <polygon fill="#96BF3D" points="37.5,36.238 52.944,27.557 52.944,27.557 "/> <polygon fill="#96BF3D" points="22.056,27.557 22.056,27.557 37.5,36.238 37.5,36.238 "/> <polygon fill="#96BF3D" points="37.5,36.238 37.5,36.238 37.5,36.238 "/> <path fill="#FFFFFF" d="M54.963,26.346L37.5,16.453l-17.463,9.893l-1.01,0.605v1.211v19.785l17.464,9.892l1.009,0.606l1.01-0.606 l17.463-9.892V28.062v-1.211L54.963,26.346z M53.953,46.735L38.51,55.518V38.055l15.443-8.782V46.735z M36.491,55.518l-15.444-8.782 V29.273l15.444,8.781V55.518z M22.056,27.557L37.5,18.774l15.444,8.682l0,0L37.5,36.238l0,0l0,0L22.056,27.557L22.056,27.557z"/>  </g></g><g id="ProcessOnG1214" transform="matrix(1.0,0.0,0.0,1.0,1346.25,1005.25)" opacity="1.0"><g id="ProcessOnG1216" transform="matrix(0.6228070175438597,0.0,0.0,0.66,0.0,0.0)"> <path fill="#00BCF2" d="M28.535,0C13.121,0,0.625,4.019,0.142,9.037h-0.07V65.18C0.045,65.339,0,65.518,0,65.678 c0,0.102,0.062,0.187,0.071,0.285C0.554,70.979,13.051,75,28.464,75c15.414,0,27.909-4.021,28.393-9.037H57V9.037h-0.07 C56.444,4.019,43.949,0,28.535,0L28.535,0z M28.891,4.341c11.948,0,21.632,2.624,21.632,5.835c0,3.21-9.684,5.835-21.632,5.835 c-11.949,0-21.633-2.625-21.633-5.835C7.259,6.965,16.941,4.341,28.891,4.341z M9.392,34.013h7.829c1.772,0,3.121,0.088,4.055,0.284 c1.308,0.271,2.422,0.785,3.346,1.494c1.204,0.914,2.106,2.063,2.704,3.486c0.598,1.423,0.925,3.08,0.925,4.91 c0,1.559-0.235,2.922-0.641,4.127c-0.404,1.203-0.933,2.199-1.565,2.987c-0.633,0.789-1.312,1.397-2.063,1.851 c-0.753,0.453-1.642,0.834-2.705,1.067s-2.319,0.355-3.699,0.355H9.392V34.013L9.392,34.013z M32.307,34.013h8.54 c1.741,0,3.145,0.225,4.196,0.64c1.056,0.415,1.896,1.059,2.49,1.922c0.598,0.863,0.854,1.762,0.854,2.702 c0,0.879-0.254,1.718-0.783,2.49c-0.528,0.774-1.351,1.375-2.42,1.852c1.381,0.363,2.461,0.974,3.203,1.85 c0.741,0.879,1.139,1.938,1.139,3.133c0,0.961-0.26,1.877-0.713,2.703c-0.451,0.826-0.972,1.475-1.637,1.922 c-0.664,0.446-1.488,0.768-2.49,0.996c-1.002,0.228-2.246,0.354-3.699,0.354h-8.683V34.013H32.307z M12.382,36.432v15.726h4.84 c1.504,0,2.7-0.176,3.558-0.428c0.856-0.252,1.555-0.609,2.063-1.066c0.717-0.645,1.309-1.475,1.709-2.563 c0.399-1.086,0.569-2.436,0.569-3.984c-0.001-2.146-0.428-3.758-1.21-4.91c-0.785-1.15-1.727-1.955-2.848-2.348 c-0.811-0.28-2.118-0.427-3.913-0.427H12.382z M35.295,36.432v6.19h4.91c1.339,0,2.337-0.056,2.919-0.213 c0.768-0.206,1.318-0.521,1.707-0.997s0.568-1.061,0.568-1.778c0-0.682-0.135-1.333-0.498-1.85 c-0.362-0.519-0.892-0.877-1.564-1.068c-0.674-0.19-1.848-0.284-3.486-0.284H35.295L35.295,36.432z M35.295,45.042v7.116h5.692 c0.977,0,1.671-0.077,2.064-0.143c0.694-0.113,1.24-0.309,1.707-0.57c0.467-0.26,0.838-0.639,1.139-1.139 c0.302-0.498,0.498-1.054,0.498-1.707c0-0.766-0.205-1.428-0.641-1.992c-0.438-0.564-1.077-0.98-1.852-1.211 c-0.771-0.229-1.891-0.354-3.344-0.354H35.295L35.295,45.042z"/>  </g></g><g id="ProcessOnG1217"><path id="ProcessOnPath1218" d="M1364.0 973.5L1364.0 989.375L1364.0 989.375L1364.0 1005.25" stroke="#323232" stroke-width="2.0" stroke-dasharray="none" fill="none"/></g><g id="ProcessOnG1219" transform="matrix(1.0,0.0,0.0,1.0,1730.5,665.5)" opacity="1.0"><g id="ProcessOnG1221" transform="matrix(1.0,0.0,0.0,1.0,0.0,0.0)"> <g id="Layer_1"> <polygon fill="#FFFFFF" points="37.5,73.789 69.499,55.619 69.499,19.28 37.5,37.45 "/> <polygon fill="#FFFFFF" points="5.502,55.519 37.5,73.688 37.5,37.45 5.502,19.28 "/> <polygon fill="#FFFFFF" points="69.297,19.28 37.5,1.212 5.703,19.28 37.5,37.349 "/> <polygon fill="#FFFFFF" points="37.5,36.238 67.479,19.28 67.378,19.28 "/> <polygon fill="#FFFFFF" points="7.621,19.28 7.521,19.28 37.5,36.238 37.5,36.238 "/> <polygon fill="#FFFFFF" points="37.5,36.238 37.5,36.238 37.5,36.238 "/> <path fill="#444444" d="M69.499,18.069L37.5,0L5.502,18.069l-1.01,0.605v1.211v36.339l31.999,18.169L37.5,75l1.01-0.606 l31.998-18.169V19.886v-1.211L69.499,18.069z M68.489,55.014L38.51,71.972V37.954l29.979-16.958V55.014z M36.491,71.972 L6.511,55.014V20.997l29.98,16.958V71.972z M7.621,19.28L37.5,2.322L67.378,19.28l0,0L37.5,36.238l0,0l0,0L7.621,19.28L7.621,19.28 z"/> <polygon fill="#AE1F23" points="37.602,57.033 54.862,47.241 54.862,27.759 37.602,37.551 "/> <polygon fill="#AE1F23" points="20.138,47.241 37.399,57.033 37.399,37.551 20.138,27.759 "/> <polygon fill="#AE1F23" points="54.66,27.558 37.5,17.766 20.34,27.558 37.5,37.248 "/> <polygon fill="#96BF3D" points="37.5,36.238 52.944,27.558 52.944,27.558 "/> <polygon fill="#96BF3D" points="22.057,27.558 22.057,27.558 37.5,36.238 37.5,36.238 "/> <polygon fill="#96BF3D" points="37.5,36.238 37.5,36.238 37.5,36.238 "/> <path fill="#FFFFFF" d="M54.963,26.346L37.5,16.454l-17.463,9.892l-1.009,0.605v1.211v19.785l17.463,9.892l1.009,0.605l1.01-0.605 l17.462-9.892V28.063v-1.211L54.963,26.346z M53.953,46.736L38.51,55.519V38.055l15.443-8.781V46.736z M36.491,55.519 l-15.444-8.782V29.273l15.444,8.781V55.519z M22.057,27.558L37.5,18.775l15.444,8.681l0,0L37.5,36.238l0,0l0,0L22.057,27.558 L22.057,27.558z"/> </g>  </g><g id="ProcessOnG1222" transform="matrix(1.0,0.0,0.0,1.0,-20.0,80.0)"><text id="ProcessOnText1223" fill="#000000" font-size="16" x="56.5" y="16.4" font-family="微软雅黑" font-weight="bold" font-style="normal" text-decoration="none" family="微软雅黑" text-anchor="middle" size="16">Kibana_3</text></g></g><g id="ProcessOnG1224"><path id="ProcessOnPath1225" d="M1805.5 703.0C1910.6248781212134 703.0 1870.8751218787866 503.0 1976.0 503.0" stroke="#323232" stroke-width="2.0" stroke-dasharray="none" fill="none" marker-end="url(#ProcessOnMarker1226)"/></g><g id="ProcessOnG1228" transform="matrix(1.0,0.0,0.0,1.0,1430.5,665.5)" opacity="1.0"><g id="ProcessOnG1230" transform="matrix(1.0,0.0,0.0,1.0,0.0,0.0)"> <polygon fill="#FFFFFF" points="37.5,73.788 69.499,55.618 69.499,19.279 37.5,37.449 "/> <polygon fill="#FFFFFF" points="5.502,55.518 37.5,73.688 37.5,37.449 5.502,19.279 "/> <polygon fill="#FFFFFF" points="69.297,19.279 37.5,1.211 5.703,19.279 37.5,37.349 "/> <polygon fill="#FFFFFF" points="37.5,36.238 67.479,19.279 67.379,19.279 "/> <polygon fill="#FFFFFF" points="7.621,19.279 7.521,19.279 37.5,36.238 37.5,36.238 "/> <polygon fill="#FFFFFF" points="37.5,36.238 37.5,36.238 37.5,36.238 "/> <path fill="#444444" d="M69.499,18.068L37.5,0L5.502,18.068l-1.01,0.605v1.212v36.339l31.999,18.169L37.5,75l1.01-0.606 l31.998-18.169V19.886v-1.212L69.499,18.068z M68.489,55.013L38.51,71.971V37.954l29.979-16.958V55.013z M36.491,71.971 L6.511,55.013V20.996l29.98,16.958V71.971z M7.621,19.279L37.5,2.321l29.879,16.958l0,0L37.5,36.238l0,0l0,0L7.621,19.279 L7.621,19.279z"/> <polygon fill="#4090D7" points="37.602,57.031 54.862,47.24 54.862,27.759 37.602,37.55 "/> <polygon fill="#4090D7" points="20.138,47.24 37.399,57.031 37.399,37.55 20.138,27.759 "/> <polygon fill="#4090D7" points="54.66,27.557 37.5,17.766 20.34,27.557 37.5,37.247 "/> <polygon fill="#96BF3D" points="37.5,36.238 52.944,27.557 52.944,27.557 "/> <polygon fill="#96BF3D" points="22.056,27.557 22.056,27.557 37.5,36.238 37.5,36.238 "/> <polygon fill="#96BF3D" points="37.5,36.238 37.5,36.238 37.5,36.238 "/> <path fill="#FFFFFF" d="M54.963,26.346L37.5,16.453l-17.463,9.893l-1.01,0.605v1.211v19.785l17.464,9.892l1.009,0.606l1.01-0.606 l17.463-9.892V28.062v-1.211L54.963,26.346z M53.953,46.735L38.51,55.518V38.055l15.443-8.782V46.735z M36.491,55.518l-15.444-8.782 V29.273l15.444,8.781V55.518z M22.056,27.557L37.5,18.774l15.444,8.682l0,0L37.5,36.238l0,0l0,0L22.056,27.557L22.056,27.557z"/>  </g><g id="ProcessOnG1231" transform="matrix(1.0,0.0,0.0,1.0,-20.0,80.625)"><text id="ProcessOnText1232" fill="#000000" font-size="15" x="56.5" y="15.375" font-family="微软雅黑" font-weight="bold" font-style="normal" text-decoration="none" family="微软雅黑" text-anchor="middle" size="15">Elasticsearch</text></g></g><g id="ProcessOnG1233"><path id="ProcessOnPath1234" d="M1505.5 703.0L1618.0 703.0L1618.0 703.0L1730.5 703.0" stroke="#323232" stroke-width="2.0" stroke-dasharray="none" fill="none" marker-end="url(#ProcessOnMarker1235)"/></g><g id="ProcessOnG1237" transform="matrix(1.0,0.0,0.0,1.0,1356.0,658.0)" opacity="1.0"><path id="ProcessOnPath1238" d="M0.0 0.0L91.0 0.0L91.0 44.0L0.0 44.0Z" stroke="none" stroke-width="0.0" stroke-dasharray="none" opacity="1.0" fill="none"/><g id="ProcessOnG1239" transform="matrix(1.0,0.0,0.0,1.0,0.0,12.0)"><text id="ProcessOnText1240" fill="#a1a1a1" font-size="16" x="44.5" y="16.4" font-family="微软雅黑" font-weight="bold" font-style="normal" text-decoration="none" family="微软雅黑" text-anchor="middle" size="16">master</text></g></g><g id="ProcessOnG1241" transform="matrix(1.0,0.0,0.0,1.0,1483.5,658.0)" opacity="1.0"><path id="ProcessOnPath1242" d="M0.0 0.0L91.0 0.0L91.0 44.0L0.0 44.0Z" stroke="none" stroke-width="0.0" stroke-dasharray="none" opacity="1.0" fill="none"/><g id="ProcessOnG1243" transform="matrix(1.0,0.0,0.0,1.0,0.0,12.0)"><text id="ProcessOnText1244" fill="#a1a1a1" font-size="16" x="44.5" y="16.4" font-family="微软雅黑" font-weight="bold" font-style="normal" text-decoration="none" family="微软雅黑" text-anchor="middle" size="16">client</text></g></g><g id="ProcessOnG1245" transform="matrix(1.0,0.0,0.0,1.0,1356.0,458.0)" opacity="1.0"><path id="ProcessOnPath1246" d="M0.0 0.0L91.0 0.0L91.0 44.0L0.0 44.0Z" stroke="none" stroke-width="0.0" stroke-dasharray="none" opacity="1.0" fill="none"/><g id="ProcessOnG1247" transform="matrix(1.0,0.0,0.0,1.0,0.0,12.0)"><text id="ProcessOnText1248" fill="#a1a1a1" font-size="16" x="44.5" y="16.4" font-family="微软雅黑" font-weight="bold" font-style="normal" text-decoration="none" family="微软雅黑" text-anchor="middle" size="16">master</text></g></g><g id="ProcessOnG1249" transform="matrix(1.0,0.0,0.0,1.0,1356.0,265.0)" opacity="1.0"><path id="ProcessOnPath1250" d="M0.0 0.0L91.0 0.0L91.0 44.0L0.0 44.0Z" stroke="none" stroke-width="0.0" stroke-dasharray="none" opacity="1.0" fill="none"/><g id="ProcessOnG1251" transform="matrix(1.0,0.0,0.0,1.0,0.0,12.0)"><text id="ProcessOnText1252" fill="#a1a1a1" font-size="16" x="44.5" y="16.4" font-family="微软雅黑" font-weight="bold" font-style="normal" text-decoration="none" family="微软雅黑" text-anchor="middle" size="16">master</text></g></g><g id="ProcessOnG1253" transform="matrix(1.0,0.0,0.0,1.0,1483.5,458.0)" opacity="1.0"><path id="ProcessOnPath1254" d="M0.0 0.0L91.0 0.0L91.0 44.0L0.0 44.0Z" stroke="none" stroke-width="0.0" stroke-dasharray="none" opacity="1.0" fill="none"/><g id="ProcessOnG1255" transform="matrix(1.0,0.0,0.0,1.0,0.0,12.0)"><text id="ProcessOnText1256" fill="#a1a1a1" font-size="16" x="44.5" y="16.4" font-family="微软雅黑" font-weight="bold" font-style="normal" text-decoration="none" family="微软雅黑" text-anchor="middle" size="16">client</text></g></g><g id="ProcessOnG1257" transform="matrix(1.0,0.0,0.0,1.0,1483.5,265.0)" opacity="1.0"><path id="ProcessOnPath1258" d="M0.0 0.0L91.0 0.0L91.0 44.0L0.0 44.0Z" stroke="none" stroke-width="0.0" stroke-dasharray="none" opacity="1.0" fill="none"/><g id="ProcessOnG1259" transform="matrix(1.0,0.0,0.0,1.0,0.0,12.0)"><text id="ProcessOnText1260" fill="#a1a1a1" font-size="16" x="44.5" y="16.4" font-family="微软雅黑" font-weight="bold" font-style="normal" text-decoration="none" family="微软雅黑" text-anchor="middle" size="16">client</text></g></g><g id="ProcessOnG1261"><path id="ProcessOnPath1262" d="M1211.5 703.0C1330.132879085016 703.0 1311.867120914984 503.0 1430.5 503.0" stroke="#a1a1a1" stroke-width="2.0" stroke-dasharray="2.0 3.0" fill="none" marker-end="url(#ProcessOnMarker1263)"/></g><g id="ProcessOnG1265"><path id="ProcessOnPath1266" d="M1211.5 703.0C1391.4599955545677 703.0 1250.5400044454323 310.0 1430.5 310.0" stroke="#a1a1a1" stroke-width="2.0" stroke-dasharray="2.0 3.0" fill="none" marker-end="url(#ProcessOnMarker1267)"/></g><g id="ProcessOnG1269"><path id="ProcessOnPath1270" d="M1211.5 503.0C1330.132879085016 503.0 1311.867120914984 703.0 1430.5 703.0" stroke="#a1a1a1" stroke-width="2.0" stroke-dasharray="2.0 3.0" fill="none" marker-end="url(#ProcessOnMarker1271)"/></g><g id="ProcessOnG1273"><path id="ProcessOnPath1274" d="M1211.5 503.0C1328.2630078406685 503.0 1313.7369921593315 310.0 1430.5 310.0" stroke="#a1a1a1" stroke-width="2.0" stroke-dasharray="2.0 3.0" fill="none" marker-end="url(#ProcessOnMarker1275)"/></g><g id="ProcessOnG1277"><path id="ProcessOnPath1278" d="M1214.5 310.0C1330.3654391956463 310.0 1314.6345608043537 503.0 1430.5 503.0" stroke="#a1a1a1" stroke-width="2.0" stroke-dasharray="2.0 3.0" fill="none" marker-end="url(#ProcessOnMarker1279)"/></g><g id="ProcessOnG1281"><path id="ProcessOnPath1282" d="M1214.5 310.0C1393.8789285284088 310.0 1251.1210714715912 703.0 1430.5 703.0" stroke="#a1a1a1" stroke-width="2.0" stroke-dasharray="2.0 3.0" fill="none" marker-end="url(#ProcessOnMarker1283)"/></g><g id="ProcessOnG1285"><path id="ProcessOnPath1286" d="M1211.5 503.0L1321.0 503.0L1321.0 503.0L1430.5 503.0" stroke="#323232" stroke-width="2.0" stroke-dasharray="none" fill="none" marker-end="url(#ProcessOnMarker1287)"/></g><g id="ProcessOnG1289"><path id="ProcessOnPath1290" d="M1214.5 310.0L1322.5 310.0L1322.5 310.0L1430.5 310.0" stroke="#323232" stroke-width="2.0" stroke-dasharray="none" fill="none" marker-end="url(#ProcessOnMarker1291)"/></g><g id="ProcessOnG1293"><path id="ProcessOnPath1294" d="M1211.5 703.0L1321.0 703.0L1321.0 703.0L1430.5 703.0" stroke="#323232" stroke-width="2.0" stroke-dasharray="none" fill="none" marker-end="url(#ProcessOnMarker1295)"/></g><g id="ProcessOnG1297"><path id="ProcessOnPath1298" d="M1468.0 347.5C1468.0 394.7 1468.0 418.3 1468.0 465.5" stroke="#323232" stroke-width="2.0" stroke-dasharray="2.0 3.0" fill="none"/></g><g id="ProcessOnG1299" transform="matrix(1.0,0.0,0.0,1.0,1430.5,272.5)" opacity="1.0"><g id="ProcessOnG1301" transform="matrix(1.0,0.0,0.0,1.0,0.0,0.0)"> <polygon fill="#FFFFFF" points="37.5,73.788 69.499,55.618 69.499,19.279 37.5,37.449 "/> <polygon fill="#FFFFFF" points="5.502,55.518 37.5,73.688 37.5,37.449 5.502,19.279 "/> <polygon fill="#FFFFFF" points="69.297,19.279 37.5,1.211 5.703,19.279 37.5,37.349 "/> <polygon fill="#FFFFFF" points="37.5,36.238 67.479,19.279 67.379,19.279 "/> <polygon fill="#FFFFFF" points="7.621,19.279 7.521,19.279 37.5,36.238 37.5,36.238 "/> <polygon fill="#FFFFFF" points="37.5,36.238 37.5,36.238 37.5,36.238 "/> <path fill="#444444" d="M69.499,18.068L37.5,0L5.502,18.068l-1.01,0.605v1.212v36.339l31.999,18.169L37.5,75l1.01-0.606 l31.998-18.169V19.886v-1.212L69.499,18.068z M68.489,55.013L38.51,71.971V37.954l29.979-16.958V55.013z M36.491,71.971 L6.511,55.013V20.996l29.98,16.958V71.971z M7.621,19.279L37.5,2.321l29.879,16.958l0,0L37.5,36.238l0,0l0,0L7.621,19.279 L7.621,19.279z"/> <polygon fill="#4090D7" points="37.602,57.031 54.862,47.24 54.862,27.759 37.602,37.55 "/> <polygon fill="#4090D7" points="20.138,47.24 37.399,57.031 37.399,37.55 20.138,27.759 "/> <polygon fill="#4090D7" points="54.66,27.557 37.5,17.766 20.34,27.557 37.5,37.247 "/> <polygon fill="#96BF3D" points="37.5,36.238 52.944,27.557 52.944,27.557 "/> <polygon fill="#96BF3D" points="22.056,27.557 22.056,27.557 37.5,36.238 37.5,36.238 "/> <polygon fill="#96BF3D" points="37.5,36.238 37.5,36.238 37.5,36.238 "/> <path fill="#FFFFFF" d="M54.963,26.346L37.5,16.453l-17.463,9.893l-1.01,0.605v1.211v19.785l17.464,9.892l1.009,0.606l1.01-0.606 l17.463-9.892V28.062v-1.211L54.963,26.346z M53.953,46.735L38.51,55.518V38.055l15.443-8.782V46.735z M36.491,55.518l-15.444-8.782 V29.273l15.444,8.781V55.518z M22.056,27.557L37.5,18.774l15.444,8.682l0,0L37.5,36.238l0,0l0,0L22.056,27.557L22.056,27.557z"/>  </g><g id="ProcessOnG1302" transform="matrix(1.0,0.0,0.0,1.0,-20.0,80.625)"><text id="ProcessOnText1303" fill="#000000" font-size="15" x="56.5" y="15.375" font-family="微软雅黑" font-weight="bold" font-style="normal" text-decoration="none" family="微软雅黑" text-anchor="middle" size="15">Elasticsearch</text></g></g><g id="ProcessOnG1304"><path id="ProcessOnPath1305" d="M1468.0 540.5C1468.0 590.5 1468.0 615.5 1468.0 665.5" stroke="#323232" stroke-width="2.0" stroke-dasharray="2.0 3.0" fill="none"/></g><g id="ProcessOnG1306"><path id="ProcessOnPath1307" d="M1468.0 740.5C1468.0 792.2340206139913 1467.3333333333326 818.0993127193419 1467.3333333333326 869.8333333333333" stroke="#323232" stroke-width="2.0" stroke-dasharray="2.0 3.0" fill="none"/></g><g id="ProcessOnG1308" transform="matrix(1.0,0.0,0.0,1.0,1235.5,869.5)" opacity="1.0"><path id="ProcessOnPath1309" d="M0.0 0.0L91.0 0.0L91.0 44.0L0.0 44.0Z" stroke="none" stroke-width="0.0" stroke-dasharray="none" opacity="1.0" fill="none"/><g id="ProcessOnG1310" transform="matrix(1.0,0.0,0.0,1.0,0.0,12.0)"><text id="ProcessOnText1311" fill="#a1a1a1" font-size="16" x="44.5" y="16.4" font-family="微软雅黑" font-weight="bold" font-style="normal" text-decoration="none" family="微软雅黑" text-anchor="middle" size="16">data</text></g></g><g id="ProcessOnG1312" transform="matrix(1.0,0.0,0.0,1.0,1976.0,468.0)" opacity="1.0"><path id="ProcessOnPath1313" d="M0.0 4.0Q0.0 0.0 4.0 0.0L96.0 0.0Q100.0 0.0 100.0 4.0L100.0 66.0Q100.0 70.0 96.0 70.0L4.0 70.0Q0.0 70.0 0.0 66.0Z" stroke="#323232" stroke-width="2.0" stroke-dasharray="none" opacity="1.0" fill="#ffffff"/><g id="ProcessOnG1314" transform="matrix(1.0,0.0,0.0,1.0,10.0,25.0)"><text id="ProcessOnText1315" fill="#000000" font-size="16" x="39.0" y="16.4" font-family="微软雅黑" font-weight="bold" font-style="normal" text-decoration="none" family="微软雅黑" text-anchor="middle" size="16">Nginx</text></g></g><g id="ProcessOnG1316"><path id="ProcessOnPath1317" d="M2076.0 503.0L2097.5 503.0L2097.5 503.0L2103.7639320225003 503.0" stroke="#323232" stroke-width="2.0" stroke-dasharray="none" fill="none" marker-end="url(#ProcessOnMarker1318)"/></g><g id="ProcessOnG1320" transform="matrix(1.0,0.0,0.0,1.0,213.5,215.0)" opacity="1.0"><g id="ProcessOnG1322" transform="matrix(1.0,0.0,0.0,1.0,0.0,0.0)"> <g id="Layer_1"> <polygon fill="#FFFFFF" points="37.5,73.789 69.499,55.619 69.499,19.28 37.5,37.45 "/> <polygon fill="#FFFFFF" points="5.502,55.519 37.5,73.688 37.5,37.45 5.502,19.28 "/> <polygon fill="#FFFFFF" points="69.297,19.28 37.5,1.212 5.703,19.28 37.5,37.349 "/> <polygon fill="#FFFFFF" points="37.5,36.238 67.479,19.28 67.378,19.28 "/> <polygon fill="#FFFFFF" points="7.621,19.28 7.521,19.28 37.5,36.238 37.5,36.238 "/> <polygon fill="#FFFFFF" points="37.5,36.238 37.5,36.238 37.5,36.238 "/> <path fill="#444444" d="M69.499,18.069L37.5,0L5.502,18.069l-1.01,0.605v1.211v36.339l31.999,18.169L37.5,75l1.01-0.606 l31.998-18.169V19.886v-1.211L69.499,18.069z M68.489,55.014L38.51,71.972V37.954l29.979-16.958V55.014z M36.491,71.972 L6.511,55.014V20.997l29.98,16.958V71.972z M7.621,19.28L37.5,2.322L67.378,19.28l0,0L37.5,36.238l0,0l0,0L7.621,19.28L7.621,19.28 z"/> <polygon fill="#FFD44F" points="37.602,57.033 54.862,47.241 54.862,27.759 37.602,37.551 "/> <polygon fill="#FFD44F" points="20.138,47.241 37.399,57.033 37.399,37.551 20.138,27.759 "/> <polygon fill="#FFD44F" points="54.66,27.558 37.5,17.766 20.34,27.558 37.5,37.248 "/> <polygon fill="#96BF3D" points="37.5,36.238 52.944,27.558 52.944,27.558 "/> <polygon fill="#96BF3D" points="22.057,27.558 22.057,27.558 37.5,36.238 37.5,36.238 "/> <polygon fill="#96BF3D" points="37.5,36.238 37.5,36.238 37.5,36.238 "/> <path fill="#FFFFFF" d="M54.963,26.346L37.5,16.454l-17.463,9.892l-1.009,0.605v1.211v19.785l17.463,9.892l1.009,0.605l1.01-0.605 l17.462-9.892V28.063v-1.211L54.963,26.346z M53.953,46.736L38.51,55.519V38.055l15.443-8.781V46.736z M36.491,55.519 l-15.444-8.782V29.273l15.444,8.781V55.519z M22.057,27.558L37.5,18.775l15.444,8.681l0,0L37.5,36.238l0,0l0,0L22.057,27.558 L22.057,27.558z"/> </g>  </g><g id="ProcessOnG1323" transform="matrix(1.0,0.0,0.0,1.0,-20.0,80.625)"><text id="ProcessOnText1324" fill="#000000" font-size="15" x="56.5" y="15.375" font-family="微软雅黑" font-weight="bold" font-style="normal" text-decoration="none" family="微软雅黑" text-anchor="middle" size="15">Filebeat</text></g></g><g id="ProcessOnG1325"><path id="ProcessOnPath1326" d="M148.0 252.5C174.2 252.5 187.3 252.5 198.2639320225002 252.5" stroke="#323232" stroke-width="2.0" stroke-dasharray="none" fill="none" marker-end="url(#ProcessOnMarker1327)"/></g><g id="ProcessOnG1329" transform="matrix(1.0,0.0,0.0,1.0,213.5,326.0)" opacity="1.0"><g id="ProcessOnG1331" transform="matrix(1.0,0.0,0.0,1.0,0.0,0.0)"> <g id="Layer_1"> <polygon fill="#FFFFFF" points="37.5,73.789 69.499,55.619 69.499,19.28 37.5,37.45 "/> <polygon fill="#FFFFFF" points="5.502,55.519 37.5,73.688 37.5,37.45 5.502,19.28 "/> <polygon fill="#FFFFFF" points="69.297,19.28 37.5,1.212 5.703,19.28 37.5,37.349 "/> <polygon fill="#FFFFFF" points="37.5,36.238 67.479,19.28 67.378,19.28 "/> <polygon fill="#FFFFFF" points="7.621,19.28 7.521,19.28 37.5,36.238 37.5,36.238 "/> <polygon fill="#FFFFFF" points="37.5,36.238 37.5,36.238 37.5,36.238 "/> <path fill="#444444" d="M69.499,18.069L37.5,0L5.502,18.069l-1.01,0.605v1.211v36.339l31.999,18.169L37.5,75l1.01-0.606 l31.998-18.169V19.886v-1.211L69.499,18.069z M68.489,55.014L38.51,71.972V37.954l29.979-16.958V55.014z M36.491,71.972 L6.511,55.014V20.997l29.98,16.958V71.972z M7.621,19.28L37.5,2.322L67.378,19.28l0,0L37.5,36.238l0,0l0,0L7.621,19.28L7.621,19.28 z"/> <polygon fill="#FFD44F" points="37.602,57.033 54.862,47.241 54.862,27.759 37.602,37.551 "/> <polygon fill="#FFD44F" points="20.138,47.241 37.399,57.033 37.399,37.551 20.138,27.759 "/> <polygon fill="#FFD44F" points="54.66,27.558 37.5,17.766 20.34,27.558 37.5,37.248 "/> <polygon fill="#96BF3D" points="37.5,36.238 52.944,27.558 52.944,27.558 "/> <polygon fill="#96BF3D" points="22.057,27.558 22.057,27.558 37.5,36.238 37.5,36.238 "/> <polygon fill="#96BF3D" points="37.5,36.238 37.5,36.238 37.5,36.238 "/> <path fill="#FFFFFF" d="M54.963,26.346L37.5,16.454l-17.463,9.892l-1.009,0.605v1.211v19.785l17.463,9.892l1.009,0.605l1.01-0.605 l17.462-9.892V28.063v-1.211L54.963,26.346z M53.953,46.736L38.51,55.519V38.055l15.443-8.781V46.736z M36.491,55.519 l-15.444-8.782V29.273l15.444,8.781V55.519z M22.057,27.558L37.5,18.775l15.444,8.681l0,0L37.5,36.238l0,0l0,0L22.057,27.558 L22.057,27.558z"/> </g>  </g><g id="ProcessOnG1332" transform="matrix(1.0,0.0,0.0,1.0,-20.0,80.625)"><text id="ProcessOnText1333" fill="#000000" font-size="15" x="56.5" y="15.375" font-family="微软雅黑" font-weight="bold" font-style="normal" text-decoration="none" family="微软雅黑" text-anchor="middle" size="15">Filebeat</text></g></g><g id="ProcessOnG1334"><path id="ProcessOnPath1335" d="M148.0 363.5C174.2 363.5 187.3 363.5 198.2639320225002 363.5" stroke="#323232" stroke-width="2.0" stroke-dasharray="none" fill="none" marker-end="url(#ProcessOnMarker1336)"/></g><g id="ProcessOnG1338"><path id="ProcessOnPath1339" d="M288.5 252.5C389.524899900965 252.5 435.8049001868764 363.05953034340934 428.3279108211328 448.52190986104927" stroke="#323232" stroke-width="2.0" stroke-dasharray="none" fill="none" marker-end="url(#ProcessOnMarker1340)"/></g><g id="ProcessOnG1342"><path id="ProcessOnPath1343" d="M288.5 363.5C346.67721890912287 363.5 359.21139054543863 418.9170505031712 380.68196601125015 456.1051780776986" stroke="#323232" stroke-width="2.0" stroke-dasharray="none" fill="none" marker-end="url(#ProcessOnMarker1344)"/></g><g id="ProcessOnG1346" transform="matrix(1.0,0.0,0.0,1.0,109.0,218.0)" opacity="1.0"><g id="ProcessOnG1348" transform="matrix(1.25,0.0,0.0,1.25,0.0,0.0)"> <path fill="#000" d="M6,8v16h17.722L27,14H9.15l-2.016,5.985L8.485,13H24v-2 h-9.989l-1.946-3H6z"/>  </g></g><g id="ProcessOnG1349" transform="matrix(1.0,0.0,0.0,1.0,102.0,243.5)" opacity="1.0"><path id="ProcessOnPath1350" d="M0.0 0.0L54.0 0.0L54.0 36.5L0.0 36.5Z" stroke="none" stroke-width="0.0" stroke-dasharray="none" opacity="1.0" fill="none"/><g id="ProcessOnG1351" transform="matrix(1.0,0.0,0.0,1.0,0.0,8.25)"><text id="ProcessOnText1352" fill="#000000" font-size="16" x="26.0" y="16.4" font-family="微软雅黑" font-weight="bold" font-style="normal" text-decoration="none" family="微软雅黑" text-anchor="middle" size="16">*.log</text></g></g><g id="ProcessOnG1353" transform="matrix(1.0,0.0,0.0,1.0,109.0,332.5)" opacity="1.0"><g id="ProcessOnG1355" transform="matrix(1.25,0.0,0.0,1.25,0.0,0.0)"> <path fill="#000" d="M6,8v16h17.722L27,14H9.15l-2.016,5.985L8.485,13H24v-2 h-9.989l-1.946-3H6z"/>  </g></g><g id="ProcessOnG1356" transform="matrix(1.0,0.0,0.0,1.0,102.0,358.0)" opacity="1.0"><path id="ProcessOnPath1357" d="M0.0 0.0L54.0 0.0L54.0 36.5L0.0 36.5Z" stroke="none" stroke-width="0.0" stroke-dasharray="none" opacity="1.0" fill="none"/><g id="ProcessOnG1358" transform="matrix(1.0,0.0,0.0,1.0,0.0,8.25)"><text id="ProcessOnText1359" fill="#000000" font-size="16" x="26.0" y="16.4" font-family="微软雅黑" font-weight="bold" font-style="normal" text-decoration="none" family="微软雅黑" text-anchor="middle" size="16">*.log</text></g></g><g id="ProcessOnG1360" transform="matrix(1.0,0.0,0.0,1.0,153.5,609.0)" opacity="1.0"><path id="ProcessOnPath1361" d="M22.5 26.0L0.0 0.0L112.5 0.0L135.0 26.0L112.5 52.0L0.0 52.0L22.5 26.0Z" stroke="#323232" stroke-width="2.0" stroke-dasharray="none" opacity="1.0" fill="#ffffff"/><g id="ProcessOnG1362" transform="matrix(1.0,0.0,0.0,1.0,22.5,16.0)"><text id="ProcessOnText1363" fill="#000000" font-size="16" x="44.0" y="16.4" font-family="微软雅黑" font-weight="bold" font-style="normal" text-decoration="none" family="微软雅黑" text-anchor="middle" size="16">Logrus</text></g></g><g id="ProcessOnG1364" transform="matrix(1.0,0.0,0.0,1.0,153.5,699.0)" opacity="1.0"><path id="ProcessOnPath1365" d="M22.5 26.0L0.0 0.0L112.5 0.0L135.0 26.0L112.5 52.0L0.0 52.0L22.5 26.0Z" stroke="#323232" stroke-width="2.0" stroke-dasharray="none" opacity="1.0" fill="#ffffff"/><g id="ProcessOnG1366" transform="matrix(1.0,0.0,0.0,1.0,22.5,16.0)"><text id="ProcessOnText1367" fill="#000000" font-size="16" x="44.0" y="16.4" font-family="微软雅黑" font-weight="bold" font-style="normal" text-decoration="none" family="微软雅黑" text-anchor="middle" size="16">Logrus</text></g></g><g id="ProcessOnG1368"><path id="ProcessOnPath1369" d="M288.5 635.0C348.1034361425581 635.0 351.7876497528208 571.6588810478034 380.3064442837213 537.6715052091467" stroke="#323232" stroke-width="2.0" stroke-dasharray="none" fill="none" marker-end="url(#ProcessOnMarker1370)"/></g><g id="ProcessOnG1372"><path id="ProcessOnPath1373" d="M288.5 725.0C382.56860475206383 725.0 424.3 627.0686047520638 424.3 548.2360679774998" stroke="#323232" stroke-width="2.0" stroke-dasharray="none" fill="none" marker-end="url(#ProcessOnMarker1374)"/></g></g></g></svg>